<?xml version="1.0" encoding="utf-8" standalone="no"?>
<!DOCTYPE svg PUBLIC "-//W3C//DTD SVG 1.1//EN"
  "http://www.w3.org/Graphics/SVG/1.1/DTD/svg11.dtd">
<svg xmlns:xlink="http://www.w3.org/1999/xlink" width="568.9858pt" height="350.847863pt" viewBox="0 0 568.9858 350.847863" xmlns="http://www.w3.org/2000/svg" version="1.1">
 <metadata>
  <rdf:RDF xmlns:dc="http://purl.org/dc/elements/1.1/" xmlns:cc="http://creativecommons.org/ns#" xmlns:rdf="http://www.w3.org/1999/02/22-rdf-syntax-ns#">
   <cc:Work>
    <dc:type rdf:resource="http://purl.org/dc/dcmitype/StillImage"/>
    <dc:format>image/svg+xml</dc:format>
    <dc:creator>
     <cc:Agent>
      <dc:title>Matplotlib v3.9.1, https://matplotlib.org/</dc:title>
     </cc:Agent>
    </dc:creator>
   </cc:Work>
  </rdf:RDF>
 </metadata>
 <defs>
  <style type="text/css">*{stroke-linejoin: round; stroke-linecap: butt}</style>
 </defs>
 <g id="figure_1">
  <g id="patch_1">
   <path d="M 0 350.847863 
L 568.9858 350.847863 
L 568.9858 0 
L 0 0 
z
" style="fill: #ffffff"/>
  </g>
  <g id="axes_1">
   <g id="patch_2">
    <path d="M 47.4558 100.61093 
L 561.7858 100.61093 
L 561.7858 7.2 
L 47.4558 7.2 
z
" style="fill: #ffffff"/>
   </g>
   <g id="matplotlib.axis_1"/>
   <g id="matplotlib.axis_2">
    <g id="ytick_1">
     <g id="line2d_1">
      <defs>
       <path id="me5179b328b" d="M 0 0 
L -3.5 0 
" style="stroke: #000000; stroke-width: 0.8"/>
      </defs>
      <g>
       <use xlink:href="#me5179b328b" x="47.4558" y="96.364978" style="stroke: #000000; stroke-width: 0.8"/>
      </g>
     </g>
     <g id="text_1">
      <!-- 0 -->
      <g transform="translate(34.0933 100.164197) scale(0.1 -0.1)">
       <defs>
        <path id="DejaVuSans-30" d="M 2034 4250 
Q 1547 4250 1301 3770 
Q 1056 3291 1056 2328 
Q 1056 1369 1301 889 
Q 1547 409 2034 409 
Q 2525 409 2770 889 
Q 3016 1369 3016 2328 
Q 3016 3291 2770 3770 
Q 2525 4250 2034 4250 
z
M 2034 4750 
Q 2819 4750 3233 4129 
Q 3647 3509 3647 2328 
Q 3647 1150 3233 529 
Q 2819 -91 2034 -91 
Q 1250 -91 836 529 
Q 422 1150 422 2328 
Q 422 3509 836 4129 
Q 1250 4750 2034 4750 
z
" transform="scale(0.015625)"/>
       </defs>
       <use xlink:href="#DejaVuSans-30"/>
      </g>
     </g>
    </g>
    <g id="ytick_2">
     <g id="line2d_2">
      <g>
       <use xlink:href="#me5179b328b" x="47.4558" y="53.905465" style="stroke: #000000; stroke-width: 0.8"/>
      </g>
     </g>
     <g id="text_2">
      <!-- 50 -->
      <g transform="translate(27.7308 57.704684) scale(0.1 -0.1)">
       <defs>
        <path id="DejaVuSans-35" d="M 691 4666 
L 3169 4666 
L 3169 4134 
L 1269 4134 
L 1269 2991 
Q 1406 3038 1543 3061 
Q 1681 3084 1819 3084 
Q 2600 3084 3056 2656 
Q 3513 2228 3513 1497 
Q 3513 744 3044 326 
Q 2575 -91 1722 -91 
Q 1428 -91 1123 -41 
Q 819 9 494 109 
L 494 744 
Q 775 591 1075 516 
Q 1375 441 1709 441 
Q 2250 441 2565 725 
Q 2881 1009 2881 1497 
Q 2881 1984 2565 2268 
Q 2250 2553 1709 2553 
Q 1456 2553 1204 2497 
Q 953 2441 691 2322 
L 691 4666 
z
" transform="scale(0.015625)"/>
       </defs>
       <use xlink:href="#DejaVuSans-35"/>
       <use xlink:href="#DejaVuSans-30" x="63.623047"/>
      </g>
     </g>
    </g>
    <g id="ytick_3">
     <g id="line2d_3">
      <g>
       <use xlink:href="#me5179b328b" x="47.4558" y="11.445951" style="stroke: #000000; stroke-width: 0.8"/>
      </g>
     </g>
     <g id="text_3">
      <!-- 100 -->
      <g transform="translate(21.3683 15.24517) scale(0.1 -0.1)">
       <defs>
        <path id="DejaVuSans-31" d="M 794 531 
L 1825 531 
L 1825 4091 
L 703 3866 
L 703 4441 
L 1819 4666 
L 2450 4666 
L 2450 531 
L 3481 531 
L 3481 0 
L 794 0 
L 794 531 
z
" transform="scale(0.015625)"/>
       </defs>
       <use xlink:href="#DejaVuSans-31"/>
       <use xlink:href="#DejaVuSans-30" x="63.623047"/>
       <use xlink:href="#DejaVuSans-30" x="127.246094"/>
      </g>
     </g>
    </g>
    <g id="text_4">
     <!-- test accuracy -->
     <g transform="translate(15.288612 87.655465) rotate(-90) scale(0.1 -0.1)">
      <defs>
       <path id="DejaVuSans-74" d="M 1172 4494 
L 1172 3500 
L 2356 3500 
L 2356 3053 
L 1172 3053 
L 1172 1153 
Q 1172 725 1289 603 
Q 1406 481 1766 481 
L 2356 481 
L 2356 0 
L 1766 0 
Q 1100 0 847 248 
Q 594 497 594 1153 
L 594 3053 
L 172 3053 
L 172 3500 
L 594 3500 
L 594 4494 
L 1172 4494 
z
" transform="scale(0.015625)"/>
       <path id="DejaVuSans-65" d="M 3597 1894 
L 3597 1613 
L 953 1613 
Q 991 1019 1311 708 
Q 1631 397 2203 397 
Q 2534 397 2845 478 
Q 3156 559 3463 722 
L 3463 178 
Q 3153 47 2828 -22 
Q 2503 -91 2169 -91 
Q 1331 -91 842 396 
Q 353 884 353 1716 
Q 353 2575 817 3079 
Q 1281 3584 2069 3584 
Q 2775 3584 3186 3129 
Q 3597 2675 3597 1894 
z
M 3022 2063 
Q 3016 2534 2758 2815 
Q 2500 3097 2075 3097 
Q 1594 3097 1305 2825 
Q 1016 2553 972 2059 
L 3022 2063 
z
" transform="scale(0.015625)"/>
       <path id="DejaVuSans-73" d="M 2834 3397 
L 2834 2853 
Q 2591 2978 2328 3040 
Q 2066 3103 1784 3103 
Q 1356 3103 1142 2972 
Q 928 2841 928 2578 
Q 928 2378 1081 2264 
Q 1234 2150 1697 2047 
L 1894 2003 
Q 2506 1872 2764 1633 
Q 3022 1394 3022 966 
Q 3022 478 2636 193 
Q 2250 -91 1575 -91 
Q 1294 -91 989 -36 
Q 684 19 347 128 
L 347 722 
Q 666 556 975 473 
Q 1284 391 1588 391 
Q 1994 391 2212 530 
Q 2431 669 2431 922 
Q 2431 1156 2273 1281 
Q 2116 1406 1581 1522 
L 1381 1569 
Q 847 1681 609 1914 
Q 372 2147 372 2553 
Q 372 3047 722 3315 
Q 1072 3584 1716 3584 
Q 2034 3584 2315 3537 
Q 2597 3491 2834 3397 
z
" transform="scale(0.015625)"/>
       <path id="DejaVuSans-20" transform="scale(0.015625)"/>
       <path id="DejaVuSans-61" d="M 2194 1759 
Q 1497 1759 1228 1600 
Q 959 1441 959 1056 
Q 959 750 1161 570 
Q 1363 391 1709 391 
Q 2188 391 2477 730 
Q 2766 1069 2766 1631 
L 2766 1759 
L 2194 1759 
z
M 3341 1997 
L 3341 0 
L 2766 0 
L 2766 531 
Q 2569 213 2275 61 
Q 1981 -91 1556 -91 
Q 1019 -91 701 211 
Q 384 513 384 1019 
Q 384 1609 779 1909 
Q 1175 2209 1959 2209 
L 2766 2209 
L 2766 2266 
Q 2766 2663 2505 2880 
Q 2244 3097 1772 3097 
Q 1472 3097 1187 3025 
Q 903 2953 641 2809 
L 641 3341 
Q 956 3463 1253 3523 
Q 1550 3584 1831 3584 
Q 2591 3584 2966 3190 
Q 3341 2797 3341 1997 
z
" transform="scale(0.015625)"/>
       <path id="DejaVuSans-63" d="M 3122 3366 
L 3122 2828 
Q 2878 2963 2633 3030 
Q 2388 3097 2138 3097 
Q 1578 3097 1268 2742 
Q 959 2388 959 1747 
Q 959 1106 1268 751 
Q 1578 397 2138 397 
Q 2388 397 2633 464 
Q 2878 531 3122 666 
L 3122 134 
Q 2881 22 2623 -34 
Q 2366 -91 2075 -91 
Q 1284 -91 818 406 
Q 353 903 353 1747 
Q 353 2603 823 3093 
Q 1294 3584 2113 3584 
Q 2378 3584 2631 3529 
Q 2884 3475 3122 3366 
z
" transform="scale(0.015625)"/>
       <path id="DejaVuSans-75" d="M 544 1381 
L 544 3500 
L 1119 3500 
L 1119 1403 
Q 1119 906 1312 657 
Q 1506 409 1894 409 
Q 2359 409 2629 706 
Q 2900 1003 2900 1516 
L 2900 3500 
L 3475 3500 
L 3475 0 
L 2900 0 
L 2900 538 
Q 2691 219 2414 64 
Q 2138 -91 1772 -91 
Q 1169 -91 856 284 
Q 544 659 544 1381 
z
M 1991 3584 
L 1991 3584 
z
" transform="scale(0.015625)"/>
       <path id="DejaVuSans-72" d="M 2631 2963 
Q 2534 3019 2420 3045 
Q 2306 3072 2169 3072 
Q 1681 3072 1420 2755 
Q 1159 2438 1159 1844 
L 1159 0 
L 581 0 
L 581 3500 
L 1159 3500 
L 1159 2956 
Q 1341 3275 1631 3429 
Q 1922 3584 2338 3584 
Q 2397 3584 2469 3576 
Q 2541 3569 2628 3553 
L 2631 2963 
z
" transform="scale(0.015625)"/>
       <path id="DejaVuSans-79" d="M 2059 -325 
Q 1816 -950 1584 -1140 
Q 1353 -1331 966 -1331 
L 506 -1331 
L 506 -850 
L 844 -850 
Q 1081 -850 1212 -737 
Q 1344 -625 1503 -206 
L 1606 56 
L 191 3500 
L 800 3500 
L 1894 763 
L 2988 3500 
L 3597 3500 
L 2059 -325 
z
" transform="scale(0.015625)"/>
      </defs>
      <use xlink:href="#DejaVuSans-74"/>
      <use xlink:href="#DejaVuSans-65" x="39.208984"/>
      <use xlink:href="#DejaVuSans-73" x="100.732422"/>
      <use xlink:href="#DejaVuSans-74" x="152.832031"/>
      <use xlink:href="#DejaVuSans-20" x="192.041016"/>
      <use xlink:href="#DejaVuSans-61" x="223.828125"/>
      <use xlink:href="#DejaVuSans-63" x="285.107422"/>
      <use xlink:href="#DejaVuSans-63" x="340.087891"/>
      <use xlink:href="#DejaVuSans-75" x="395.068359"/>
      <use xlink:href="#DejaVuSans-72" x="458.447266"/>
      <use xlink:href="#DejaVuSans-61" x="499.560547"/>
      <use xlink:href="#DejaVuSans-63" x="560.839844"/>
      <use xlink:href="#DejaVuSans-79" x="615.820312"/>
     </g>
    </g>
   </g>
   <g id="line2d_4">
    <path d="M 58.759756 100.61093 
L 58.759756 7.2 
" clip-path="url(#pd19080f006)" style="fill: none; stroke-dasharray: 5.55,2.4; stroke-dashoffset: 0; stroke: #d3d3d3; stroke-width: 1.5"/>
   </g>
   <g id="line2d_5">
    <path d="M 115.279536 100.61093 
L 115.279536 7.2 
" clip-path="url(#pd19080f006)" style="fill: none; stroke-dasharray: 5.55,2.4; stroke-dashoffset: 0; stroke: #d3d3d3; stroke-width: 1.5"/>
   </g>
   <g id="line2d_6">
    <path d="M 171.799316 100.61093 
L 171.799316 7.2 
" clip-path="url(#pd19080f006)" style="fill: none; stroke-dasharray: 5.55,2.4; stroke-dashoffset: 0; stroke: #d3d3d3; stroke-width: 1.5"/>
   </g>
   <g id="line2d_7">
    <path d="M 228.319097 100.61093 
L 228.319097 7.2 
" clip-path="url(#pd19080f006)" style="fill: none; stroke-dasharray: 5.55,2.4; stroke-dashoffset: 0; stroke: #d3d3d3; stroke-width: 1.5"/>
   </g>
   <g id="line2d_8">
    <path d="M 250.927009 100.61093 
L 250.927009 7.2 
" clip-path="url(#pd19080f006)" style="fill: none; stroke-dasharray: 5.55,2.4; stroke-dashoffset: 0; stroke: #d3d3d3; stroke-width: 1.5"/>
   </g>
   <g id="line2d_9">
    <path d="M 284.838877 100.61093 
L 284.838877 7.2 
" clip-path="url(#pd19080f006)" style="fill: none; stroke-dasharray: 5.55,2.4; stroke-dashoffset: 0; stroke: #d3d3d3; stroke-width: 1.5"/>
   </g>
   <g id="line2d_10">
    <path d="M 318.750745 100.61093 
L 318.750745 7.2 
" clip-path="url(#pd19080f006)" style="fill: none; stroke-dasharray: 5.55,2.4; stroke-dashoffset: 0; stroke: #d3d3d3; stroke-width: 1.5"/>
   </g>
   <g id="line2d_11">
    <path d="M 397.878437 100.61093 
L 397.878437 7.2 
" clip-path="url(#pd19080f006)" style="fill: none; stroke-dasharray: 5.55,2.4; stroke-dashoffset: 0; stroke: #d3d3d3; stroke-width: 1.5"/>
   </g>
   <g id="line2d_12">
    <path d="M 477.00613 100.61093 
L 477.00613 7.2 
" clip-path="url(#pd19080f006)" style="fill: none; stroke-dasharray: 5.55,2.4; stroke-dashoffset: 0; stroke: #d3d3d3; stroke-width: 1.5"/>
   </g>
   <g id="line2d_13">
    <path d="M 544.829866 100.61093 
L 544.829866 7.2 
" clip-path="url(#pd19080f006)" style="fill: none; stroke-dasharray: 5.55,2.4; stroke-dashoffset: 0; stroke: #d3d3d3; stroke-width: 1.5"/>
   </g>
   <g id="line2d_14">
    <path d="M 53.107778 80.934014 
L 64.411734 73.98552 
L 75.71569 74.145571 
L 87.019646 71.629826 
L 98.323602 72.094743 
L 109.627558 64.060089 
L 120.931514 49.938157 
L 132.23547 48.467828 
L 143.539426 45.114604 
L 154.843382 50.453971 
L 166.147338 43.376836 
L 177.451295 25.0048 
L 188.755251 30.561025 
L 200.059207 28.701763 
L 211.363163 39.948558 
L 222.667119 33.186549 
L 233.971075 22.810506 
L 245.275031 17.509701 
L 256.578987 15.426531 
L 267.882943 16.043521 
L 279.186899 15.937372 
L 290.490855 15.512777 
L 301.794811 13.86747 
L 313.098767 12.179041 
L 324.402723 11.479123 
L 335.706679 22.84036 
L 347.010635 25.747841 
L 358.314591 31.514706 
L 369.618547 31.226114 
L 380.922503 32.889664 
L 392.226459 33.866571 
L 403.530415 34.344234 
L 414.834371 35.807927 
L 426.138327 30.824324 
L 437.442284 41.231051 
L 448.74624 40.899336 
L 460.050196 47.169164 
L 471.354152 46.437939 
L 482.658108 48.198416 
L 493.962064 50.559294 
L 505.26602 49.857921 
L 516.569976 53.329839 
L 527.873932 52.547714 
L 539.177888 69.935384 
L 550.481844 85.263516 
" clip-path="url(#pd19080f006)" style="fill: none; stroke: #fcbba1; stroke-width: 1.5; stroke-linecap: square"/>
   </g>
   <g id="line2d_15">
    <path d="M 53.107778 86.684707 
L 64.411734 79.211274 
L 75.71569 80.124733 
L 87.019646 77.282765 
L 98.323602 78.577075 
L 109.627558 70.560045 
L 120.931514 55.998589 
L 132.23547 57.184467 
L 143.539426 53.959372 
L 154.843382 61.14929 
L 166.147338 51.830591 
L 177.451295 32.791808 
L 188.755251 40.693258 
L 200.059207 39.273518 
L 211.363163 50.52529 
L 222.667119 33.186549 
L 233.971075 22.810506 
L 245.275031 17.509701 
L 256.578987 15.426531 
L 267.882943 16.043521 
L 279.186899 15.937372 
L 290.490855 15.512777 
L 301.794811 13.86747 
L 313.098767 12.19231 
L 324.402723 11.502343 
L 335.706679 28.703422 
L 347.010635 34.888247 
L 358.314591 42.411545 
L 369.618547 42.358468 
L 380.922503 44.590909 
L 392.226459 47.546075 
L 403.530415 49.125452 
L 414.834371 51.600046 
L 426.138327 43.008217 
L 437.442284 56.290081 
L 448.74624 54.385208 
L 460.050196 60.56174 
L 471.354152 61.631002 
L 482.658108 64.529673 
L 493.962064 67.119848 
L 505.26602 65.614484 
L 516.569976 68.937439 
L 527.873932 67.01484 
L 539.177888 78.944968 
L 550.481844 90.605992 
" clip-path="url(#pd19080f006)" style="fill: none; stroke: #fb7555; stroke-width: 1.5; stroke-linecap: square"/>
   </g>
   <g id="line2d_16">
    <path d="M 53.107778 89.295304 
L 64.411734 81.970623 
L 75.71569 83.231866 
L 87.019646 80.638062 
L 98.323602 82.523861 
L 109.627558 74.162882 
L 120.931514 60.328296 
L 132.23547 63.470465 
L 143.539426 60.822136 
L 154.843382 68.801125 
L 166.147338 51.830591 
L 177.451295 32.791808 
L 188.755251 40.693258 
L 200.059207 39.273518 
L 211.363163 50.52529 
L 222.667119 33.186549 
L 233.971075 22.810506 
L 245.275031 17.509701 
L 256.578987 15.426531 
L 267.882943 16.043521 
L 279.186899 15.937372 
L 290.490855 15.512777 
L 301.794811 13.86747 
L 313.098767 12.19231 
L 324.402723 11.502343 
L 335.706679 28.703422 
L 347.010635 34.888247 
L 358.314591 42.411545 
L 369.618547 42.358468 
L 380.922503 44.590909 
L 392.226459 52.412748 
L 403.530415 56.652894 
L 414.834371 59.77599 
L 426.138327 47.188237 
L 437.442284 66.909935 
L 448.74624 63.982965 
L 460.050196 69.154401 
L 471.354152 71.651593 
L 482.658108 74.423695 
L 493.962064 77.401457 
L 505.26602 74.860728 
L 516.569976 77.776295 
L 527.873932 75.357574 
L 539.177888 83.539117 
L 550.481844 93.125678 
" clip-path="url(#pd19080f006)" style="fill: none; stroke: #de2b25; stroke-width: 1.5; stroke-linecap: square"/>
   </g>
   <g id="line2d_17">
    <path d="M 53.107778 90.434744 
L 64.411734 83.510091 
L 75.71569 85.162343 
L 87.019646 82.635608 
L 98.323602 84.810725 
L 109.627558 74.162882 
L 120.931514 60.328296 
L 132.23547 63.470465 
L 143.539426 60.822136 
L 154.843382 68.801125 
L 166.147338 51.830591 
L 177.451295 32.791808 
L 188.755251 40.693258 
L 200.059207 39.273518 
L 211.363163 50.52529 
L 222.667119 33.186549 
L 233.971075 22.810506 
L 245.275031 17.509701 
L 256.578987 15.426531 
L 267.882943 16.043521 
L 279.186899 15.937372 
L 290.490855 15.512777 
L 301.794811 13.86747 
L 313.098767 12.19231 
L 324.402723 11.502343 
L 335.706679 28.703422 
L 347.010635 34.888247 
L 358.314591 42.411545 
L 369.618547 42.358468 
L 380.922503 44.590909 
L 392.226459 52.412748 
L 403.530415 56.652894 
L 414.834371 59.77599 
L 426.138327 47.188237 
L 437.442284 66.909935 
L 448.74624 63.982965 
L 460.050196 69.154401 
L 471.354152 77.433903 
L 482.658108 80.169307 
L 493.962064 83.128723 
L 505.26602 80.420685 
L 516.569976 82.928762 
L 527.873932 80.406587 
L 539.177888 86.229325 
L 550.481844 94.46591 
" clip-path="url(#pd19080f006)" style="fill: none; stroke: #980c13; stroke-width: 1.5; stroke-linecap: square"/>
   </g>
   <g id="patch_3">
    <path d="M 47.4558 100.61093 
L 47.4558 7.2 
" style="fill: none; stroke: #000000; stroke-width: 0.8; stroke-linejoin: miter; stroke-linecap: square"/>
   </g>
   <g id="patch_4">
    <path d="M 561.7858 100.61093 
L 561.7858 7.2 
" style="fill: none; stroke: #000000; stroke-width: 0.8; stroke-linejoin: miter; stroke-linecap: square"/>
   </g>
   <g id="patch_5">
    <path d="M 47.4558 100.61093 
L 561.7858 100.61093 
" style="fill: none; stroke: #000000; stroke-width: 0.8; stroke-linejoin: miter; stroke-linecap: square"/>
   </g>
   <g id="patch_6">
    <path d="M 47.4558 7.2 
L 561.7858 7.2 
" style="fill: none; stroke: #000000; stroke-width: 0.8; stroke-linejoin: miter; stroke-linecap: square"/>
   </g>
   <g id="legend_1">
    <g id="patch_7">
     <path d="M 53.2868 62.771512 
L 108.12293 62.771512 
Q 109.78893 62.771512 109.78893 61.105512 
L 109.78893 13.031 
Q 109.78893 11.365 108.12293 11.365 
L 53.2868 11.365 
Q 51.6208 11.365 51.6208 13.031 
L 51.6208 61.105512 
Q 51.6208 62.771512 53.2868 62.771512 
z
" style="fill: #ffffff; opacity: 0.8; stroke: #cccccc; stroke-linejoin: miter"/>
    </g>
    <g id="line2d_18">
     <path d="M 54.9528 18.110998 
L 63.2828 18.110998 
L 71.6128 18.110998 
" style="fill: none; stroke: #fcbba1; stroke-width: 1.5; stroke-linecap: square"/>
    </g>
    <g id="text_5">
     <!-- 8×8 -->
     <g transform="translate(78.2768 21.026498) scale(0.0833 -0.0833)">
      <defs>
       <path id="DejaVuSans-38" d="M 2034 2216 
Q 1584 2216 1326 1975 
Q 1069 1734 1069 1313 
Q 1069 891 1326 650 
Q 1584 409 2034 409 
Q 2484 409 2743 651 
Q 3003 894 3003 1313 
Q 3003 1734 2745 1975 
Q 2488 2216 2034 2216 
z
M 1403 2484 
Q 997 2584 770 2862 
Q 544 3141 544 3541 
Q 544 4100 942 4425 
Q 1341 4750 2034 4750 
Q 2731 4750 3128 4425 
Q 3525 4100 3525 3541 
Q 3525 3141 3298 2862 
Q 3072 2584 2669 2484 
Q 3125 2378 3379 2068 
Q 3634 1759 3634 1313 
Q 3634 634 3220 271 
Q 2806 -91 2034 -91 
Q 1263 -91 848 271 
Q 434 634 434 1313 
Q 434 1759 690 2068 
Q 947 2378 1403 2484 
z
M 1172 3481 
Q 1172 3119 1398 2916 
Q 1625 2713 2034 2713 
Q 2441 2713 2670 2916 
Q 2900 3119 2900 3481 
Q 2900 3844 2670 4047 
Q 2441 4250 2034 4250 
Q 1625 4250 1398 4047 
Q 1172 3844 1172 3481 
z
" transform="scale(0.015625)"/>
       <path id="DejaVuSans-d7" d="M 4488 3438 
L 3059 2003 
L 4488 575 
L 4116 197 
L 2681 1631 
L 1247 197 
L 878 575 
L 2303 2003 
L 878 3438 
L 1247 3816 
L 2681 2381 
L 4116 3816 
L 4488 3438 
z
" transform="scale(0.015625)"/>
      </defs>
      <use xlink:href="#DejaVuSans-38"/>
      <use xlink:href="#DejaVuSans-d7" x="63.623047"/>
      <use xlink:href="#DejaVuSans-38" x="147.412109"/>
     </g>
    </g>
    <g id="line2d_19">
     <path d="M 54.9528 30.337877 
L 63.2828 30.337877 
L 71.6128 30.337877 
" style="fill: none; stroke: #fb7555; stroke-width: 1.5; stroke-linecap: square"/>
    </g>
    <g id="text_6">
     <!-- 16×16 -->
     <g transform="translate(78.2768 33.253377) scale(0.0833 -0.0833)">
      <defs>
       <path id="DejaVuSans-36" d="M 2113 2584 
Q 1688 2584 1439 2293 
Q 1191 2003 1191 1497 
Q 1191 994 1439 701 
Q 1688 409 2113 409 
Q 2538 409 2786 701 
Q 3034 994 3034 1497 
Q 3034 2003 2786 2293 
Q 2538 2584 2113 2584 
z
M 3366 4563 
L 3366 3988 
Q 3128 4100 2886 4159 
Q 2644 4219 2406 4219 
Q 1781 4219 1451 3797 
Q 1122 3375 1075 2522 
Q 1259 2794 1537 2939 
Q 1816 3084 2150 3084 
Q 2853 3084 3261 2657 
Q 3669 2231 3669 1497 
Q 3669 778 3244 343 
Q 2819 -91 2113 -91 
Q 1303 -91 875 529 
Q 447 1150 447 2328 
Q 447 3434 972 4092 
Q 1497 4750 2381 4750 
Q 2619 4750 2861 4703 
Q 3103 4656 3366 4563 
z
" transform="scale(0.015625)"/>
      </defs>
      <use xlink:href="#DejaVuSans-31"/>
      <use xlink:href="#DejaVuSans-36" x="63.623047"/>
      <use xlink:href="#DejaVuSans-d7" x="127.246094"/>
      <use xlink:href="#DejaVuSans-31" x="211.035156"/>
      <use xlink:href="#DejaVuSans-36" x="274.658203"/>
     </g>
    </g>
    <g id="line2d_20">
     <path d="M 54.9528 42.564755 
L 63.2828 42.564755 
L 71.6128 42.564755 
" style="fill: none; stroke: #de2b25; stroke-width: 1.5; stroke-linecap: square"/>
    </g>
    <g id="text_7">
     <!-- 32×32 -->
     <g transform="translate(78.2768 45.480255) scale(0.0833 -0.0833)">
      <defs>
       <path id="DejaVuSans-33" d="M 2597 2516 
Q 3050 2419 3304 2112 
Q 3559 1806 3559 1356 
Q 3559 666 3084 287 
Q 2609 -91 1734 -91 
Q 1441 -91 1130 -33 
Q 819 25 488 141 
L 488 750 
Q 750 597 1062 519 
Q 1375 441 1716 441 
Q 2309 441 2620 675 
Q 2931 909 2931 1356 
Q 2931 1769 2642 2001 
Q 2353 2234 1838 2234 
L 1294 2234 
L 1294 2753 
L 1863 2753 
Q 2328 2753 2575 2939 
Q 2822 3125 2822 3475 
Q 2822 3834 2567 4026 
Q 2313 4219 1838 4219 
Q 1578 4219 1281 4162 
Q 984 4106 628 3988 
L 628 4550 
Q 988 4650 1302 4700 
Q 1616 4750 1894 4750 
Q 2613 4750 3031 4423 
Q 3450 4097 3450 3541 
Q 3450 3153 3228 2886 
Q 3006 2619 2597 2516 
z
" transform="scale(0.015625)"/>
       <path id="DejaVuSans-32" d="M 1228 531 
L 3431 531 
L 3431 0 
L 469 0 
L 469 531 
Q 828 903 1448 1529 
Q 2069 2156 2228 2338 
Q 2531 2678 2651 2914 
Q 2772 3150 2772 3378 
Q 2772 3750 2511 3984 
Q 2250 4219 1831 4219 
Q 1534 4219 1204 4116 
Q 875 4013 500 3803 
L 500 4441 
Q 881 4594 1212 4672 
Q 1544 4750 1819 4750 
Q 2544 4750 2975 4387 
Q 3406 4025 3406 3419 
Q 3406 3131 3298 2873 
Q 3191 2616 2906 2266 
Q 2828 2175 2409 1742 
Q 1991 1309 1228 531 
z
" transform="scale(0.015625)"/>
      </defs>
      <use xlink:href="#DejaVuSans-33"/>
      <use xlink:href="#DejaVuSans-32" x="63.623047"/>
      <use xlink:href="#DejaVuSans-d7" x="127.246094"/>
      <use xlink:href="#DejaVuSans-33" x="211.035156"/>
      <use xlink:href="#DejaVuSans-32" x="274.658203"/>
     </g>
    </g>
    <g id="line2d_21">
     <path d="M 54.9528 54.791633 
L 63.2828 54.791633 
L 71.6128 54.791633 
" style="fill: none; stroke: #980c13; stroke-width: 1.5; stroke-linecap: square"/>
    </g>
    <g id="text_8">
     <!-- 64×64 -->
     <g transform="translate(78.2768 57.707133) scale(0.0833 -0.0833)">
      <defs>
       <path id="DejaVuSans-34" d="M 2419 4116 
L 825 1625 
L 2419 1625 
L 2419 4116 
z
M 2253 4666 
L 3047 4666 
L 3047 1625 
L 3713 1625 
L 3713 1100 
L 3047 1100 
L 3047 0 
L 2419 0 
L 2419 1100 
L 313 1100 
L 313 1709 
L 2253 4666 
z
" transform="scale(0.015625)"/>
      </defs>
      <use xlink:href="#DejaVuSans-36"/>
      <use xlink:href="#DejaVuSans-34" x="63.623047"/>
      <use xlink:href="#DejaVuSans-d7" x="127.246094"/>
      <use xlink:href="#DejaVuSans-36" x="211.035156"/>
      <use xlink:href="#DejaVuSans-34" x="274.658203"/>
     </g>
    </g>
   </g>
  </g>
  <g id="axes_2">
   <g id="patch_8">
    <path d="M 47.4558 198.692406 
L 561.7858 198.692406 
L 561.7858 105.281476 
L 47.4558 105.281476 
z
" style="fill: #ffffff"/>
   </g>
   <g id="matplotlib.axis_3"/>
   <g id="matplotlib.axis_4">
    <g id="ytick_4">
     <g id="line2d_22">
      <g>
       <use xlink:href="#me5179b328b" x="47.4558" y="194.38005" style="stroke: #000000; stroke-width: 0.8"/>
      </g>
     </g>
     <g id="text_9">
      <!-- 0.5 -->
      <g transform="translate(24.552675 198.179269) scale(0.1 -0.1)">
       <defs>
        <path id="DejaVuSans-2e" d="M 684 794 
L 1344 794 
L 1344 0 
L 684 0 
L 684 794 
z
" transform="scale(0.015625)"/>
       </defs>
       <use xlink:href="#DejaVuSans-30"/>
       <use xlink:href="#DejaVuSans-2e" x="63.623047"/>
       <use xlink:href="#DejaVuSans-35" x="95.410156"/>
      </g>
     </g>
    </g>
    <g id="ytick_5">
     <g id="line2d_23">
      <g>
       <use xlink:href="#me5179b328b" x="47.4558" y="158.531651" style="stroke: #000000; stroke-width: 0.8"/>
      </g>
     </g>
     <g id="text_10">
      <!-- 1.0 -->
      <g transform="translate(24.552675 162.330869) scale(0.1 -0.1)">
       <use xlink:href="#DejaVuSans-31"/>
       <use xlink:href="#DejaVuSans-2e" x="63.623047"/>
       <use xlink:href="#DejaVuSans-30" x="95.410156"/>
      </g>
     </g>
    </g>
    <g id="ytick_6">
     <g id="line2d_24">
      <g>
       <use xlink:href="#me5179b328b" x="47.4558" y="122.683251" style="stroke: #000000; stroke-width: 0.8"/>
      </g>
     </g>
     <g id="text_11">
      <!-- 2.0 -->
      <g transform="translate(24.552675 126.48247) scale(0.1 -0.1)">
       <use xlink:href="#DejaVuSans-32"/>
       <use xlink:href="#DejaVuSans-2e" x="63.623047"/>
       <use xlink:href="#DejaVuSans-30" x="95.410156"/>
      </g>
     </g>
    </g>
    <g id="ytick_7">
     <g id="line2d_25">
      <defs>
       <path id="m0aaf938fa8" d="M 0 0 
L -2 0 
" style="stroke: #000000; stroke-width: 0.6"/>
      </defs>
      <g>
       <use xlink:href="#m0aaf938fa8" x="47.4558" y="184.950688" style="stroke: #000000; stroke-width: 0.6"/>
      </g>
     </g>
    </g>
    <g id="ytick_8">
     <g id="line2d_26">
      <g>
       <use xlink:href="#m0aaf938fa8" x="47.4558" y="176.978275" style="stroke: #000000; stroke-width: 0.6"/>
      </g>
     </g>
    </g>
    <g id="ytick_9">
     <g id="line2d_27">
      <g>
       <use xlink:href="#m0aaf938fa8" x="47.4558" y="170.072258" style="stroke: #000000; stroke-width: 0.6"/>
      </g>
     </g>
    </g>
    <g id="ytick_10">
     <g id="line2d_28">
      <g>
       <use xlink:href="#m0aaf938fa8" x="47.4558" y="163.980718" style="stroke: #000000; stroke-width: 0.6"/>
      </g>
     </g>
    </g>
    <g id="text_12">
     <!-- rel. similarity -->
     <g transform="translate(18.472987 184.643972) rotate(-90) scale(0.1 -0.1)">
      <defs>
       <path id="DejaVuSans-6c" d="M 603 4863 
L 1178 4863 
L 1178 0 
L 603 0 
L 603 4863 
z
" transform="scale(0.015625)"/>
       <path id="DejaVuSans-69" d="M 603 3500 
L 1178 3500 
L 1178 0 
L 603 0 
L 603 3500 
z
M 603 4863 
L 1178 4863 
L 1178 4134 
L 603 4134 
L 603 4863 
z
" transform="scale(0.015625)"/>
       <path id="DejaVuSans-6d" d="M 3328 2828 
Q 3544 3216 3844 3400 
Q 4144 3584 4550 3584 
Q 5097 3584 5394 3201 
Q 5691 2819 5691 2113 
L 5691 0 
L 5113 0 
L 5113 2094 
Q 5113 2597 4934 2840 
Q 4756 3084 4391 3084 
Q 3944 3084 3684 2787 
Q 3425 2491 3425 1978 
L 3425 0 
L 2847 0 
L 2847 2094 
Q 2847 2600 2669 2842 
Q 2491 3084 2119 3084 
Q 1678 3084 1418 2786 
Q 1159 2488 1159 1978 
L 1159 0 
L 581 0 
L 581 3500 
L 1159 3500 
L 1159 2956 
Q 1356 3278 1631 3431 
Q 1906 3584 2284 3584 
Q 2666 3584 2933 3390 
Q 3200 3197 3328 2828 
z
" transform="scale(0.015625)"/>
      </defs>
      <use xlink:href="#DejaVuSans-72"/>
      <use xlink:href="#DejaVuSans-65" x="38.863281"/>
      <use xlink:href="#DejaVuSans-6c" x="100.386719"/>
      <use xlink:href="#DejaVuSans-2e" x="128.169922"/>
      <use xlink:href="#DejaVuSans-20" x="159.957031"/>
      <use xlink:href="#DejaVuSans-73" x="191.744141"/>
      <use xlink:href="#DejaVuSans-69" x="243.84375"/>
      <use xlink:href="#DejaVuSans-6d" x="271.626953"/>
      <use xlink:href="#DejaVuSans-69" x="369.039062"/>
      <use xlink:href="#DejaVuSans-6c" x="396.822266"/>
      <use xlink:href="#DejaVuSans-61" x="424.605469"/>
      <use xlink:href="#DejaVuSans-72" x="485.884766"/>
      <use xlink:href="#DejaVuSans-69" x="526.998047"/>
      <use xlink:href="#DejaVuSans-74" x="554.78125"/>
      <use xlink:href="#DejaVuSans-79" x="593.990234"/>
     </g>
    </g>
   </g>
   <g id="line2d_29">
    <path d="M 58.759756 198.692406 
L 58.759756 105.281476 
" clip-path="url(#p501ab9a2bd)" style="fill: none; stroke-dasharray: 5.55,2.4; stroke-dashoffset: 0; stroke: #d3d3d3; stroke-width: 1.5"/>
   </g>
   <g id="line2d_30">
    <path d="M 115.279536 198.692406 
L 115.279536 105.281476 
" clip-path="url(#p501ab9a2bd)" style="fill: none; stroke-dasharray: 5.55,2.4; stroke-dashoffset: 0; stroke: #d3d3d3; stroke-width: 1.5"/>
   </g>
   <g id="line2d_31">
    <path d="M 171.799316 198.692406 
L 171.799316 105.281476 
" clip-path="url(#p501ab9a2bd)" style="fill: none; stroke-dasharray: 5.55,2.4; stroke-dashoffset: 0; stroke: #d3d3d3; stroke-width: 1.5"/>
   </g>
   <g id="line2d_32">
    <path d="M 228.319097 198.692406 
L 228.319097 105.281476 
" clip-path="url(#p501ab9a2bd)" style="fill: none; stroke-dasharray: 5.55,2.4; stroke-dashoffset: 0; stroke: #d3d3d3; stroke-width: 1.5"/>
   </g>
   <g id="line2d_33">
    <path d="M 250.927009 198.692406 
L 250.927009 105.281476 
" clip-path="url(#p501ab9a2bd)" style="fill: none; stroke-dasharray: 5.55,2.4; stroke-dashoffset: 0; stroke: #d3d3d3; stroke-width: 1.5"/>
   </g>
   <g id="line2d_34">
    <path d="M 284.838877 198.692406 
L 284.838877 105.281476 
" clip-path="url(#p501ab9a2bd)" style="fill: none; stroke-dasharray: 5.55,2.4; stroke-dashoffset: 0; stroke: #d3d3d3; stroke-width: 1.5"/>
   </g>
   <g id="line2d_35">
    <path d="M 318.750745 198.692406 
L 318.750745 105.281476 
" clip-path="url(#p501ab9a2bd)" style="fill: none; stroke-dasharray: 5.55,2.4; stroke-dashoffset: 0; stroke: #d3d3d3; stroke-width: 1.5"/>
   </g>
   <g id="line2d_36">
    <path d="M 397.878437 198.692406 
L 397.878437 105.281476 
" clip-path="url(#p501ab9a2bd)" style="fill: none; stroke-dasharray: 5.55,2.4; stroke-dashoffset: 0; stroke: #d3d3d3; stroke-width: 1.5"/>
   </g>
   <g id="line2d_37">
    <path d="M 477.00613 198.692406 
L 477.00613 105.281476 
" clip-path="url(#p501ab9a2bd)" style="fill: none; stroke-dasharray: 5.55,2.4; stroke-dashoffset: 0; stroke: #d3d3d3; stroke-width: 1.5"/>
   </g>
   <g id="line2d_38">
    <path d="M 544.829866 198.692406 
L 544.829866 105.281476 
" clip-path="url(#p501ab9a2bd)" style="fill: none; stroke-dasharray: 5.55,2.4; stroke-dashoffset: 0; stroke: #d3d3d3; stroke-width: 1.5"/>
   </g>
   <g id="line2d_39">
    <path d="M 53.107778 165.973771 
L 64.411734 165.241414 
L 75.71569 146.535932 
L 87.019646 133.458333 
L 98.323602 116.42054 
L 109.627558 140.570331 
L 120.931514 144.866854 
L 132.23547 122.931878 
L 143.539426 119.211573 
L 154.843382 126.68296 
L 166.147338 148.14726 
L 177.451295 142.539031 
L 188.755251 131.694137 
L 200.059207 134.568185 
L 211.363163 127.243549 
L 222.667119 137.364026 
L 233.971075 138.032131 
L 245.275031 145.618401 
L 256.578987 160.531255 
L 267.882943 151.831766 
L 279.186899 140.532736 
L 290.490855 168.043098 
L 301.794811 169.345113 
L 313.098767 176.076251 
L 324.402723 141.380105 
L 335.706679 131.441777 
L 347.010635 133.234143 
L 358.314591 136.073307 
L 369.618547 141.17682 
L 380.922503 143.515391 
L 392.226459 160.769643 
L 403.530415 154.474385 
L 414.834371 151.651764 
L 426.138327 144.658407 
L 437.442284 141.813648 
L 448.74624 147.524315 
L 460.050196 148.50299 
L 471.354152 170.216719 
L 482.658108 151.582971 
L 493.962064 152.629236 
L 505.26602 151.469422 
L 516.569976 145.207779 
L 527.873932 159.027992 
L 539.177888 159.256756 
" clip-path="url(#p501ab9a2bd)" style="fill: none; stroke: #1f77b4; stroke-width: 1.5; stroke-linecap: square"/>
   </g>
   <g id="line2d_40">
    <path d="M 53.107778 163.772577 
L 64.411734 165.117887 
L 75.71569 163.142222 
L 87.019646 156.258012 
L 98.323602 147.345369 
L 109.627558 153.934667 
L 120.931514 156.61297 
L 132.23547 149.945054 
L 143.539426 148.207426 
L 154.843382 147.246131 
L 166.147338 155.880346 
L 177.451295 157.657255 
L 188.755251 155.539132 
L 200.059207 155.935879 
L 211.363163 153.753937 
L 222.667119 166.059233 
L 233.971075 168.332903 
L 245.275031 169.596346 
L 256.578987 178.7333 
L 267.882943 170.098721 
L 279.186899 161.095976 
L 290.490855 173.285298 
L 301.794811 171.444641 
L 313.098767 178.433425 
L 324.402723 159.967283 
L 335.706679 157.356977 
L 347.010635 157.709778 
L 358.314591 157.985756 
L 369.618547 158.025779 
L 380.922503 156.414076 
L 392.226459 159.632968 
L 403.530415 160.74567 
L 414.834371 158.49214 
L 426.138327 155.619539 
L 437.442284 154.906027 
L 448.74624 157.074254 
L 460.050196 155.598656 
L 471.354152 162.456674 
L 482.658108 158.725428 
L 493.962064 157.835711 
L 505.26602 157.975752 
L 516.569976 154.803609 
L 527.873932 164.973911 
L 539.177888 166.099348 
" clip-path="url(#p501ab9a2bd)" style="fill: none; stroke: #50b0bf; stroke-width: 1.5; stroke-linecap: square"/>
   </g>
   <g id="line2d_41">
    <path d="M 53.107778 158.531651 
L 64.411734 158.531651 
L 75.71569 158.531651 
L 87.019646 158.531651 
L 98.323602 158.531651 
L 109.627558 158.531651 
L 120.931514 158.531651 
L 132.23547 158.531651 
L 143.539426 158.531651 
L 154.843382 158.531651 
L 166.147338 158.531651 
L 177.451295 158.531651 
L 188.755251 158.531651 
L 200.059207 158.531651 
L 211.363163 158.531651 
L 222.667119 158.531651 
L 233.971075 158.531651 
L 245.275031 158.531651 
L 256.578987 158.531651 
L 267.882943 158.531651 
L 279.186899 158.531651 
L 290.490855 158.531651 
L 301.794811 158.531651 
L 313.098767 158.531651 
L 324.402723 158.531651 
L 335.706679 158.531651 
L 347.010635 158.531651 
L 358.314591 158.531651 
L 369.618547 158.531651 
L 380.922503 158.531651 
L 392.226459 158.531651 
L 403.530415 158.531651 
L 414.834371 158.531651 
L 426.138327 158.531651 
L 437.442284 158.531651 
L 448.74624 158.531651 
L 460.050196 158.531651 
L 471.354152 158.531651 
L 482.658108 158.531651 
L 493.962064 158.531651 
L 505.26602 158.531651 
L 516.569976 158.531651 
L 527.873932 158.531651 
L 539.177888 158.531651 
L 550.481844 158.531651 
" clip-path="url(#p501ab9a2bd)" style="fill: none; stroke-dasharray: 5.55,2.4; stroke-dashoffset: 0; stroke: #808080; stroke-width: 1.5"/>
   </g>
   <g id="patch_9">
    <path d="M 47.4558 198.692406 
L 47.4558 105.281476 
" style="fill: none; stroke: #000000; stroke-width: 0.8; stroke-linejoin: miter; stroke-linecap: square"/>
   </g>
   <g id="patch_10">
    <path d="M 561.7858 198.692406 
L 561.7858 105.281476 
" style="fill: none; stroke: #000000; stroke-width: 0.8; stroke-linejoin: miter; stroke-linecap: square"/>
   </g>
   <g id="patch_11">
    <path d="M 47.4558 198.692406 
L 561.7858 198.692406 
" style="fill: none; stroke: #000000; stroke-width: 0.8; stroke-linejoin: miter; stroke-linecap: square"/>
   </g>
   <g id="patch_12">
    <path d="M 47.4558 105.281476 
L 561.7858 105.281476 
" style="fill: none; stroke: #000000; stroke-width: 0.8; stroke-linejoin: miter; stroke-linecap: square"/>
   </g>
   <g id="legend_2">
    <g id="patch_13">
     <path d="M 501.796784 136.399233 
L 555.9548 136.399233 
Q 557.6208 136.399233 557.6208 134.733233 
L 557.6208 111.112476 
Q 557.6208 109.446476 555.9548 109.446476 
L 501.796784 109.446476 
Q 500.130784 109.446476 500.130784 111.112476 
L 500.130784 134.733233 
Q 500.130784 136.399233 501.796784 136.399233 
z
" style="fill: #ffffff; opacity: 0.8; stroke: #cccccc; stroke-linejoin: miter"/>
    </g>
    <g id="line2d_42">
     <path d="M 503.462784 116.192475 
L 511.792784 116.192475 
L 520.122784 116.192475 
" style="fill: none; stroke: #1f77b4; stroke-width: 1.5; stroke-linecap: square"/>
    </g>
    <g id="text_13">
     <!-- corner -->
     <g transform="translate(526.786784 119.107975) scale(0.0833 -0.0833)">
      <defs>
       <path id="DejaVuSans-6f" d="M 1959 3097 
Q 1497 3097 1228 2736 
Q 959 2375 959 1747 
Q 959 1119 1226 758 
Q 1494 397 1959 397 
Q 2419 397 2687 759 
Q 2956 1122 2956 1747 
Q 2956 2369 2687 2733 
Q 2419 3097 1959 3097 
z
M 1959 3584 
Q 2709 3584 3137 3096 
Q 3566 2609 3566 1747 
Q 3566 888 3137 398 
Q 2709 -91 1959 -91 
Q 1206 -91 779 398 
Q 353 888 353 1747 
Q 353 2609 779 3096 
Q 1206 3584 1959 3584 
z
" transform="scale(0.015625)"/>
       <path id="DejaVuSans-6e" d="M 3513 2113 
L 3513 0 
L 2938 0 
L 2938 2094 
Q 2938 2591 2744 2837 
Q 2550 3084 2163 3084 
Q 1697 3084 1428 2787 
Q 1159 2491 1159 1978 
L 1159 0 
L 581 0 
L 581 3500 
L 1159 3500 
L 1159 2956 
Q 1366 3272 1645 3428 
Q 1925 3584 2291 3584 
Q 2894 3584 3203 3211 
Q 3513 2838 3513 2113 
z
" transform="scale(0.015625)"/>
      </defs>
      <use xlink:href="#DejaVuSans-63"/>
      <use xlink:href="#DejaVuSans-6f" x="54.980469"/>
      <use xlink:href="#DejaVuSans-72" x="116.162109"/>
      <use xlink:href="#DejaVuSans-6e" x="155.525391"/>
      <use xlink:href="#DejaVuSans-65" x="218.904297"/>
      <use xlink:href="#DejaVuSans-72" x="280.427734"/>
     </g>
    </g>
    <g id="line2d_43">
     <path d="M 503.462784 128.419353 
L 511.792784 128.419353 
L 520.122784 128.419353 
" style="fill: none; stroke: #50b0bf; stroke-width: 1.5; stroke-linecap: square"/>
    </g>
    <g id="text_14">
     <!-- border -->
     <g transform="translate(526.786784 131.334853) scale(0.0833 -0.0833)">
      <defs>
       <path id="DejaVuSans-62" d="M 3116 1747 
Q 3116 2381 2855 2742 
Q 2594 3103 2138 3103 
Q 1681 3103 1420 2742 
Q 1159 2381 1159 1747 
Q 1159 1113 1420 752 
Q 1681 391 2138 391 
Q 2594 391 2855 752 
Q 3116 1113 3116 1747 
z
M 1159 2969 
Q 1341 3281 1617 3432 
Q 1894 3584 2278 3584 
Q 2916 3584 3314 3078 
Q 3713 2572 3713 1747 
Q 3713 922 3314 415 
Q 2916 -91 2278 -91 
Q 1894 -91 1617 61 
Q 1341 213 1159 525 
L 1159 0 
L 581 0 
L 581 4863 
L 1159 4863 
L 1159 2969 
z
" transform="scale(0.015625)"/>
       <path id="DejaVuSans-64" d="M 2906 2969 
L 2906 4863 
L 3481 4863 
L 3481 0 
L 2906 0 
L 2906 525 
Q 2725 213 2448 61 
Q 2172 -91 1784 -91 
Q 1150 -91 751 415 
Q 353 922 353 1747 
Q 353 2572 751 3078 
Q 1150 3584 1784 3584 
Q 2172 3584 2448 3432 
Q 2725 3281 2906 2969 
z
M 947 1747 
Q 947 1113 1208 752 
Q 1469 391 1925 391 
Q 2381 391 2643 752 
Q 2906 1113 2906 1747 
Q 2906 2381 2643 2742 
Q 2381 3103 1925 3103 
Q 1469 3103 1208 2742 
Q 947 2381 947 1747 
z
" transform="scale(0.015625)"/>
      </defs>
      <use xlink:href="#DejaVuSans-62"/>
      <use xlink:href="#DejaVuSans-6f" x="63.476562"/>
      <use xlink:href="#DejaVuSans-72" x="124.658203"/>
      <use xlink:href="#DejaVuSans-64" x="164.021484"/>
      <use xlink:href="#DejaVuSans-65" x="227.498047"/>
      <use xlink:href="#DejaVuSans-72" x="289.021484"/>
     </g>
    </g>
   </g>
  </g>
  <g id="axes_3">
   <g id="patch_14">
    <path d="M 47.4558 296.773882 
L 561.7858 296.773882 
L 561.7858 203.362953 
L 47.4558 203.362953 
z
" style="fill: #ffffff"/>
   </g>
   <g id="axes_4">
    <g id="patch_15">
     <path d="M 47.4558 296.773882 
L 561.7858 296.773882 
L 561.7858 296.773882 
L 47.4558 296.773882 
z
" style="fill: #ffffff"/>
    </g>
    <g id="matplotlib.axis_5">
     <g id="xtick_1">
      <g id="line2d_44">
       <defs>
        <path id="mebaab098c4" d="M 0 0 
L 0 34 
" style="stroke: #d3d3d3; stroke-width: 1.5"/>
       </defs>
       <g>
        <use xlink:href="#mebaab098c4" x="58.759756" y="296.773882" style="fill: #d3d3d3; stroke: #d3d3d3; stroke-width: 1.5"/>
       </g>
      </g>
     </g>
     <g id="xtick_2">
      <g id="line2d_45">
       <g>
        <use xlink:href="#mebaab098c4" x="115.279536" y="296.773882" style="fill: #d3d3d3; stroke: #d3d3d3; stroke-width: 1.5"/>
       </g>
      </g>
     </g>
     <g id="xtick_3">
      <g id="line2d_46">
       <g>
        <use xlink:href="#mebaab098c4" x="171.799316" y="296.773882" style="fill: #d3d3d3; stroke: #d3d3d3; stroke-width: 1.5"/>
       </g>
      </g>
     </g>
     <g id="xtick_4">
      <g id="line2d_47">
       <g>
        <use xlink:href="#mebaab098c4" x="228.319097" y="296.773882" style="fill: #d3d3d3; stroke: #d3d3d3; stroke-width: 1.5"/>
       </g>
      </g>
     </g>
     <g id="xtick_5">
      <g id="line2d_48">
       <g>
        <use xlink:href="#mebaab098c4" x="250.927009" y="296.773882" style="fill: #d3d3d3; stroke: #d3d3d3; stroke-width: 1.5"/>
       </g>
      </g>
     </g>
     <g id="xtick_6">
      <g id="line2d_49">
       <g>
        <use xlink:href="#mebaab098c4" x="284.838877" y="296.773882" style="fill: #d3d3d3; stroke: #d3d3d3; stroke-width: 1.5"/>
       </g>
      </g>
     </g>
     <g id="xtick_7">
      <g id="line2d_50">
       <g>
        <use xlink:href="#mebaab098c4" x="318.750745" y="296.773882" style="fill: #d3d3d3; stroke: #d3d3d3; stroke-width: 1.5"/>
       </g>
      </g>
     </g>
     <g id="xtick_8">
      <g id="line2d_51">
       <g>
        <use xlink:href="#mebaab098c4" x="397.878437" y="296.773882" style="fill: #d3d3d3; stroke: #d3d3d3; stroke-width: 1.5"/>
       </g>
      </g>
     </g>
     <g id="xtick_9">
      <g id="line2d_52">
       <g>
        <use xlink:href="#mebaab098c4" x="477.00613" y="296.773882" style="fill: #d3d3d3; stroke: #d3d3d3; stroke-width: 1.5"/>
       </g>
      </g>
     </g>
     <g id="xtick_10">
      <g id="line2d_53">
       <g>
        <use xlink:href="#mebaab098c4" x="544.829866" y="296.773882" style="fill: #d3d3d3; stroke: #d3d3d3; stroke-width: 1.5"/>
       </g>
      </g>
     </g>
    </g>
    <g id="matplotlib.axis_6"/>
    <g id="patch_16">
     <path d="M 47.4558 296.773882 
L 561.7858 296.773882 
" style="fill: none; stroke: #000000; stroke-width: 0.8; stroke-linejoin: miter; stroke-linecap: square"/>
    </g>
   </g>
   <g id="axes_5">
    <g id="patch_17">
     <path d="M 47.4558 296.773882 
L 561.7858 296.773882 
L 561.7858 296.773882 
L 47.4558 296.773882 
z
" style="fill: #ffffff"/>
    </g>
    <g id="matplotlib.axis_7">
     <g id="xtick_11">
      <g id="line2d_54"/>
      <g id="text_15">
       <!--  -->
       <g transform="translate(53.107778 307.87232) scale(0.1 -0.1)"/>
       <!--  -->
       <g transform="translate(53.107778 319.070132) scale(0.1 -0.1)"/>
       <!--  -->
       <g transform="translate(53.107778 330.267945) scale(0.1 -0.1)"/>
       <!-- in -->
       <g transform="translate(48.549966 341.465757) scale(0.1 -0.1)">
        <use xlink:href="#DejaVuSans-69"/>
        <use xlink:href="#DejaVuSans-6e" x="27.783203"/>
       </g>
      </g>
     </g>
     <g id="xtick_12">
      <g id="line2d_55"/>
      <g id="text_16">
       <!--  -->
       <g transform="translate(87.019646 307.87232) scale(0.1 -0.1)"/>
       <!--  -->
       <g transform="translate(87.019646 319.070132) scale(0.1 -0.1)"/>
       <!--  -->
       <g transform="translate(87.019646 330.267945) scale(0.1 -0.1)"/>
       <!-- dn0 -->
       <g transform="translate(77.495427 341.465757) scale(0.1 -0.1)">
        <use xlink:href="#DejaVuSans-64"/>
        <use xlink:href="#DejaVuSans-6e" x="63.476562"/>
        <use xlink:href="#DejaVuSans-30" x="126.855469"/>
       </g>
      </g>
     </g>
     <g id="xtick_13">
      <g id="line2d_56"/>
      <g id="text_17">
       <!--  -->
       <g transform="translate(143.539426 307.87232) scale(0.1 -0.1)"/>
       <!--  -->
       <g transform="translate(143.539426 319.070132) scale(0.1 -0.1)"/>
       <!--  -->
       <g transform="translate(143.539426 330.267945) scale(0.1 -0.1)"/>
       <!-- dn1 -->
       <g transform="translate(134.015208 341.465757) scale(0.1 -0.1)">
        <use xlink:href="#DejaVuSans-64"/>
        <use xlink:href="#DejaVuSans-6e" x="63.476562"/>
        <use xlink:href="#DejaVuSans-31" x="126.855469"/>
       </g>
      </g>
     </g>
     <g id="xtick_14">
      <g id="line2d_57"/>
      <g id="text_18">
       <!--  -->
       <g transform="translate(200.059207 307.87232) scale(0.1 -0.1)"/>
       <!--  -->
       <g transform="translate(200.059207 319.070132) scale(0.1 -0.1)"/>
       <!--  -->
       <g transform="translate(200.059207 330.267945) scale(0.1 -0.1)"/>
       <!-- dn2 -->
       <g transform="translate(190.534988 341.465757) scale(0.1 -0.1)">
        <use xlink:href="#DejaVuSans-64"/>
        <use xlink:href="#DejaVuSans-6e" x="63.476562"/>
        <use xlink:href="#DejaVuSans-32" x="126.855469"/>
       </g>
      </g>
     </g>
     <g id="xtick_15">
      <g id="line2d_58"/>
      <g id="text_19">
       <!--  -->
       <g transform="translate(239.623053 307.87232) scale(0.1 -0.1)"/>
       <!--  -->
       <g transform="translate(239.623053 319.070132) scale(0.1 -0.1)"/>
       <!--  -->
       <g transform="translate(239.623053 330.267945) scale(0.1 -0.1)"/>
       <!-- dn3 -->
       <g transform="translate(230.098834 341.465757) scale(0.1 -0.1)">
        <use xlink:href="#DejaVuSans-64"/>
        <use xlink:href="#DejaVuSans-6e" x="63.476562"/>
        <use xlink:href="#DejaVuSans-33" x="126.855469"/>
       </g>
      </g>
     </g>
     <g id="xtick_16">
      <g id="line2d_59"/>
      <g id="text_20">
       <!--  -->
       <g transform="translate(267.882943 307.87232) scale(0.1 -0.1)"/>
       <!--  -->
       <g transform="translate(267.882943 319.070132) scale(0.1 -0.1)"/>
       <!--  -->
       <g transform="translate(267.882943 330.267945) scale(0.1 -0.1)"/>
       <!-- mid -->
       <g transform="translate(258.449349 341.465757) scale(0.1 -0.1)">
        <use xlink:href="#DejaVuSans-6d"/>
        <use xlink:href="#DejaVuSans-69" x="97.412109"/>
        <use xlink:href="#DejaVuSans-64" x="125.195312"/>
       </g>
      </g>
     </g>
     <g id="xtick_17">
      <g id="line2d_60"/>
      <g id="text_21">
       <!--  -->
       <g transform="translate(301.794811 307.87232) scale(0.1 -0.1)"/>
       <!--  -->
       <g transform="translate(301.794811 319.070132) scale(0.1 -0.1)"/>
       <!--  -->
       <g transform="translate(301.794811 330.267945) scale(0.1 -0.1)"/>
       <!-- up0 -->
       <g transform="translate(292.270592 341.465757) scale(0.1 -0.1)">
        <defs>
         <path id="DejaVuSans-70" d="M 1159 525 
L 1159 -1331 
L 581 -1331 
L 581 3500 
L 1159 3500 
L 1159 2969 
Q 1341 3281 1617 3432 
Q 1894 3584 2278 3584 
Q 2916 3584 3314 3078 
Q 3713 2572 3713 1747 
Q 3713 922 3314 415 
Q 2916 -91 2278 -91 
Q 1894 -91 1617 61 
Q 1341 213 1159 525 
z
M 3116 1747 
Q 3116 2381 2855 2742 
Q 2594 3103 2138 3103 
Q 1681 3103 1420 2742 
Q 1159 2381 1159 1747 
Q 1159 1113 1420 752 
Q 1681 391 2138 391 
Q 2594 391 2855 752 
Q 3116 1113 3116 1747 
z
" transform="scale(0.015625)"/>
        </defs>
        <use xlink:href="#DejaVuSans-75"/>
        <use xlink:href="#DejaVuSans-70" x="63.378906"/>
        <use xlink:href="#DejaVuSans-30" x="126.855469"/>
       </g>
      </g>
     </g>
     <g id="xtick_18">
      <g id="line2d_61"/>
      <g id="text_22">
       <!--  -->
       <g transform="translate(358.314591 307.87232) scale(0.1 -0.1)"/>
       <!--  -->
       <g transform="translate(358.314591 319.070132) scale(0.1 -0.1)"/>
       <!--  -->
       <g transform="translate(358.314591 330.267945) scale(0.1 -0.1)"/>
       <!-- up1 -->
       <g transform="translate(348.790372 341.465757) scale(0.1 -0.1)">
        <use xlink:href="#DejaVuSans-75"/>
        <use xlink:href="#DejaVuSans-70" x="63.378906"/>
        <use xlink:href="#DejaVuSans-31" x="126.855469"/>
       </g>
      </g>
     </g>
     <g id="xtick_19">
      <g id="line2d_62"/>
      <g id="text_23">
       <!--  -->
       <g transform="translate(437.442284 307.87232) scale(0.1 -0.1)"/>
       <!--  -->
       <g transform="translate(437.442284 319.070132) scale(0.1 -0.1)"/>
       <!--  -->
       <g transform="translate(437.442284 330.267945) scale(0.1 -0.1)"/>
       <!-- up2 -->
       <g transform="translate(427.918065 341.465757) scale(0.1 -0.1)">
        <use xlink:href="#DejaVuSans-75"/>
        <use xlink:href="#DejaVuSans-70" x="63.378906"/>
        <use xlink:href="#DejaVuSans-32" x="126.855469"/>
       </g>
      </g>
     </g>
     <g id="xtick_20">
      <g id="line2d_63"/>
      <g id="text_24">
       <!--  -->
       <g transform="translate(510.917998 307.87232) scale(0.1 -0.1)"/>
       <!--  -->
       <g transform="translate(510.917998 319.070132) scale(0.1 -0.1)"/>
       <!--  -->
       <g transform="translate(510.917998 330.267945) scale(0.1 -0.1)"/>
       <!-- up3 -->
       <g transform="translate(501.393779 341.465757) scale(0.1 -0.1)">
        <use xlink:href="#DejaVuSans-75"/>
        <use xlink:href="#DejaVuSans-70" x="63.378906"/>
        <use xlink:href="#DejaVuSans-33" x="126.855469"/>
       </g>
      </g>
     </g>
     <g id="xtick_21">
      <g id="line2d_64"/>
      <g id="text_25">
       <!--  -->
       <g transform="translate(550.481844 307.87232) scale(0.1 -0.1)"/>
       <!--  -->
       <g transform="translate(550.481844 319.070132) scale(0.1 -0.1)"/>
       <!--  -->
       <g transform="translate(550.481844 330.267945) scale(0.1 -0.1)"/>
       <!-- out -->
       <g transform="translate(542.293563 341.465757) scale(0.1 -0.1)">
        <use xlink:href="#DejaVuSans-6f"/>
        <use xlink:href="#DejaVuSans-75" x="61.181641"/>
        <use xlink:href="#DejaVuSans-74" x="124.560547"/>
       </g>
      </g>
     </g>
    </g>
    <g id="matplotlib.axis_8"/>
    <g id="patch_18">
     <path d="M 47.4558 296.773882 
L 561.7858 296.773882 
" style="fill: none; stroke: #000000; stroke-width: 0.8; stroke-linejoin: miter; stroke-linecap: square"/>
    </g>
   </g>
   <g id="PolyCollection_1">
    <defs>
     <path id="m43c1a79e15" d="M 53.107778 -90.874208 
L 53.107778 -68.546429 
L 64.411734 -75.589265 
L 75.71569 -78.65575 
L 87.019646 -78.767104 
L 98.323602 -77.070047 
L 109.627558 -75.709938 
L 120.931514 -77.150399 
L 132.23547 -77.376959 
L 143.539426 -76.316987 
L 154.843382 -62.580884 
L 166.147338 -75.195671 
L 177.451295 -77.081399 
L 188.755251 -77.664199 
L 200.059207 -76.511815 
L 211.363163 -76.002303 
L 222.667119 -74.290652 
L 233.971075 -74.743837 
L 245.275031 -75.245355 
L 256.578987 -75.021706 
L 267.882943 -75.285231 
L 279.186899 -75.447098 
L 290.490855 -73.072901 
L 301.794811 -72.63787 
L 313.098767 -70.816635 
L 324.402723 -82.907474 
L 335.706679 -92.420685 
L 347.010635 -91.841015 
L 358.314591 -104.396903 
L 369.618547 -120.167554 
L 380.922503 -95.610404 
L 392.226459 -92.019727 
L 403.530415 -112.154022 
L 414.834371 -109.434094 
L 426.138327 -108.592736 
L 437.442284 -105.921733 
L 448.74624 -106.5177 
L 460.050196 -86.619271 
L 471.354152 -93.798319 
L 482.658108 -78.057417 
L 493.962064 -73.318057 
L 505.26602 -78.91528 
L 516.569976 -75.10311 
L 527.873932 -77.56564 
L 539.177888 -78.432768 
L 550.481844 -77.293194 
L 550.481844 -87.899408 
L 550.481844 -87.899408 
L 539.177888 -82.797666 
L 527.873932 -82.795302 
L 516.569976 -82.370962 
L 505.26602 -84.306076 
L 493.962064 -82.300024 
L 482.658108 -86.408614 
L 471.354152 -125.927324 
L 460.050196 -104.087917 
L 448.74624 -129.535465 
L 437.442284 -130.839281 
L 426.138327 -132.261806 
L 414.834371 -138.354751 
L 403.530415 -142.015182 
L 392.226459 -133.332926 
L 380.922503 -119.031817 
L 369.618547 -146.788342 
L 358.314591 -125.477513 
L 347.010635 -110.430397 
L 335.706679 -107.004402 
L 324.402723 -94.579227 
L 313.098767 -84.443829 
L 301.794811 -83.660564 
L 290.490855 -83.442453 
L 279.186899 -83.174751 
L 267.882943 -82.947297 
L 256.578987 -82.912102 
L 245.275031 -83.385459 
L 233.971075 -83.474023 
L 222.667119 -83.895874 
L 211.363163 -87.049958 
L 200.059207 -85.119722 
L 188.755251 -85.867327 
L 177.451295 -83.965697 
L 166.147338 -83.171999 
L 154.843382 -89.672483 
L 143.539426 -82.235575 
L 132.23547 -84.151341 
L 120.931514 -82.932299 
L 109.627558 -82.955577 
L 98.323602 -83.647075 
L 87.019646 -83.65011 
L 75.71569 -85.405176 
L 64.411734 -86.499583 
L 53.107778 -90.874208 
z
" style="stroke: #26a259; stroke-opacity: 0.2"/>
    </defs>
    <g clip-path="url(#pb0b4d6bd49)">
     <use xlink:href="#m43c1a79e15" x="0" y="350.847863" style="fill: #26a259; fill-opacity: 0.2; stroke: #26a259; stroke-opacity: 0.2"/>
    </g>
   </g>
   <g id="matplotlib.axis_9">
    <g id="xtick_22">
     <g id="line2d_65">
      <defs>
       <path id="mbcb02aef95" d="M 0 0 
L 0 3.5 
" style="stroke: #000000; stroke-width: 0.8"/>
      </defs>
      <g>
       <use xlink:href="#mbcb02aef95" x="53.107778" y="296.773882" style="stroke: #000000; stroke-width: 0.8"/>
      </g>
     </g>
     <g id="text_26">
      <!-- conv -->
      <g transform="translate(55.867153 327.64732) rotate(-90) scale(0.1 -0.1)">
       <defs>
        <path id="DejaVuSans-76" d="M 191 3500 
L 800 3500 
L 1894 563 
L 2988 3500 
L 3597 3500 
L 2284 0 
L 1503 0 
L 191 3500 
z
" transform="scale(0.015625)"/>
       </defs>
       <use xlink:href="#DejaVuSans-63"/>
       <use xlink:href="#DejaVuSans-6f" x="54.980469"/>
       <use xlink:href="#DejaVuSans-6e" x="116.162109"/>
       <use xlink:href="#DejaVuSans-76" x="179.541016"/>
      </g>
     </g>
    </g>
    <g id="xtick_23">
     <g id="line2d_66">
      <g>
       <use xlink:href="#mbcb02aef95" x="64.411734" y="296.773882" style="stroke: #000000; stroke-width: 0.8"/>
      </g>
     </g>
     <g id="text_27">
      <!-- res -->
      <g transform="translate(67.171109 319.02232) rotate(-90) scale(0.1 -0.1)">
       <use xlink:href="#DejaVuSans-72"/>
       <use xlink:href="#DejaVuSans-65" x="38.863281"/>
       <use xlink:href="#DejaVuSans-73" x="100.386719"/>
      </g>
     </g>
    </g>
    <g id="xtick_24">
     <g id="line2d_67">
      <g>
       <use xlink:href="#mbcb02aef95" x="75.71569" y="296.773882" style="stroke: #000000; stroke-width: 0.8"/>
      </g>
     </g>
     <g id="text_28">
      <!-- attn -->
      <g transform="translate(78.475065 324.080132) rotate(-90) scale(0.1 -0.1)">
       <use xlink:href="#DejaVuSans-61"/>
       <use xlink:href="#DejaVuSans-74" x="61.279297"/>
       <use xlink:href="#DejaVuSans-74" x="100.488281"/>
       <use xlink:href="#DejaVuSans-6e" x="139.697266"/>
      </g>
     </g>
    </g>
    <g id="xtick_25">
     <g id="line2d_68">
      <g>
       <use xlink:href="#mbcb02aef95" x="87.019646" y="296.773882" style="stroke: #000000; stroke-width: 0.8"/>
      </g>
     </g>
     <g id="text_29">
      <!-- res -->
      <g transform="translate(89.779021 319.02232) rotate(-90) scale(0.1 -0.1)">
       <use xlink:href="#DejaVuSans-72"/>
       <use xlink:href="#DejaVuSans-65" x="38.863281"/>
       <use xlink:href="#DejaVuSans-73" x="100.386719"/>
      </g>
     </g>
    </g>
    <g id="xtick_26">
     <g id="line2d_69">
      <g>
       <use xlink:href="#mbcb02aef95" x="98.323602" y="296.773882" style="stroke: #000000; stroke-width: 0.8"/>
      </g>
     </g>
     <g id="text_30">
      <!-- attn -->
      <g transform="translate(101.082977 324.080132) rotate(-90) scale(0.1 -0.1)">
       <use xlink:href="#DejaVuSans-61"/>
       <use xlink:href="#DejaVuSans-74" x="61.279297"/>
       <use xlink:href="#DejaVuSans-74" x="100.488281"/>
       <use xlink:href="#DejaVuSans-6e" x="139.697266"/>
      </g>
     </g>
    </g>
    <g id="xtick_27">
     <g id="line2d_70">
      <g>
       <use xlink:href="#mbcb02aef95" x="109.627558" y="296.773882" style="stroke: #000000; stroke-width: 0.8"/>
      </g>
     </g>
     <g id="text_31">
      <!-- down -->
      <g transform="translate(112.386933 330.756695) rotate(-90) scale(0.1 -0.1)">
       <defs>
        <path id="DejaVuSans-77" d="M 269 3500 
L 844 3500 
L 1563 769 
L 2278 3500 
L 2956 3500 
L 3675 769 
L 4391 3500 
L 4966 3500 
L 4050 0 
L 3372 0 
L 2619 2869 
L 1863 0 
L 1184 0 
L 269 3500 
z
" transform="scale(0.015625)"/>
       </defs>
       <use xlink:href="#DejaVuSans-64"/>
       <use xlink:href="#DejaVuSans-6f" x="63.476562"/>
       <use xlink:href="#DejaVuSans-77" x="124.658203"/>
       <use xlink:href="#DejaVuSans-6e" x="206.445312"/>
      </g>
     </g>
    </g>
    <g id="xtick_28">
     <g id="line2d_71">
      <g>
       <use xlink:href="#mbcb02aef95" x="120.931514" y="296.773882" style="stroke: #000000; stroke-width: 0.8"/>
      </g>
     </g>
     <g id="text_32">
      <!-- res -->
      <g transform="translate(123.690889 319.02232) rotate(-90) scale(0.1 -0.1)">
       <use xlink:href="#DejaVuSans-72"/>
       <use xlink:href="#DejaVuSans-65" x="38.863281"/>
       <use xlink:href="#DejaVuSans-73" x="100.386719"/>
      </g>
     </g>
    </g>
    <g id="xtick_29">
     <g id="line2d_72">
      <g>
       <use xlink:href="#mbcb02aef95" x="132.23547" y="296.773882" style="stroke: #000000; stroke-width: 0.8"/>
      </g>
     </g>
     <g id="text_33">
      <!-- attn -->
      <g transform="translate(134.994845 324.080132) rotate(-90) scale(0.1 -0.1)">
       <use xlink:href="#DejaVuSans-61"/>
       <use xlink:href="#DejaVuSans-74" x="61.279297"/>
       <use xlink:href="#DejaVuSans-74" x="100.488281"/>
       <use xlink:href="#DejaVuSans-6e" x="139.697266"/>
      </g>
     </g>
    </g>
    <g id="xtick_30">
     <g id="line2d_73">
      <g>
       <use xlink:href="#mbcb02aef95" x="143.539426" y="296.773882" style="stroke: #000000; stroke-width: 0.8"/>
      </g>
     </g>
     <g id="text_34">
      <!-- res -->
      <g transform="translate(146.298801 319.02232) rotate(-90) scale(0.1 -0.1)">
       <use xlink:href="#DejaVuSans-72"/>
       <use xlink:href="#DejaVuSans-65" x="38.863281"/>
       <use xlink:href="#DejaVuSans-73" x="100.386719"/>
      </g>
     </g>
    </g>
    <g id="xtick_31">
     <g id="line2d_74">
      <g>
       <use xlink:href="#mbcb02aef95" x="154.843382" y="296.773882" style="stroke: #000000; stroke-width: 0.8"/>
      </g>
     </g>
     <g id="text_35">
      <!-- attn -->
      <g transform="translate(157.602757 324.080132) rotate(-90) scale(0.1 -0.1)">
       <use xlink:href="#DejaVuSans-61"/>
       <use xlink:href="#DejaVuSans-74" x="61.279297"/>
       <use xlink:href="#DejaVuSans-74" x="100.488281"/>
       <use xlink:href="#DejaVuSans-6e" x="139.697266"/>
      </g>
     </g>
    </g>
    <g id="xtick_32">
     <g id="line2d_75">
      <g>
       <use xlink:href="#mbcb02aef95" x="166.147338" y="296.773882" style="stroke: #000000; stroke-width: 0.8"/>
      </g>
     </g>
     <g id="text_36">
      <!-- down -->
      <g transform="translate(168.906713 330.756695) rotate(-90) scale(0.1 -0.1)">
       <use xlink:href="#DejaVuSans-64"/>
       <use xlink:href="#DejaVuSans-6f" x="63.476562"/>
       <use xlink:href="#DejaVuSans-77" x="124.658203"/>
       <use xlink:href="#DejaVuSans-6e" x="206.445312"/>
      </g>
     </g>
    </g>
    <g id="xtick_33">
     <g id="line2d_76">
      <g>
       <use xlink:href="#mbcb02aef95" x="177.451295" y="296.773882" style="stroke: #000000; stroke-width: 0.8"/>
      </g>
     </g>
     <g id="text_37">
      <!-- res -->
      <g transform="translate(180.21067 319.02232) rotate(-90) scale(0.1 -0.1)">
       <use xlink:href="#DejaVuSans-72"/>
       <use xlink:href="#DejaVuSans-65" x="38.863281"/>
       <use xlink:href="#DejaVuSans-73" x="100.386719"/>
      </g>
     </g>
    </g>
    <g id="xtick_34">
     <g id="line2d_77">
      <g>
       <use xlink:href="#mbcb02aef95" x="188.755251" y="296.773882" style="stroke: #000000; stroke-width: 0.8"/>
      </g>
     </g>
     <g id="text_38">
      <!-- attn -->
      <g transform="translate(191.514626 324.080132) rotate(-90) scale(0.1 -0.1)">
       <use xlink:href="#DejaVuSans-61"/>
       <use xlink:href="#DejaVuSans-74" x="61.279297"/>
       <use xlink:href="#DejaVuSans-74" x="100.488281"/>
       <use xlink:href="#DejaVuSans-6e" x="139.697266"/>
      </g>
     </g>
    </g>
    <g id="xtick_35">
     <g id="line2d_78">
      <g>
       <use xlink:href="#mbcb02aef95" x="200.059207" y="296.773882" style="stroke: #000000; stroke-width: 0.8"/>
      </g>
     </g>
     <g id="text_39">
      <!-- res -->
      <g transform="translate(202.818582 319.02232) rotate(-90) scale(0.1 -0.1)">
       <use xlink:href="#DejaVuSans-72"/>
       <use xlink:href="#DejaVuSans-65" x="38.863281"/>
       <use xlink:href="#DejaVuSans-73" x="100.386719"/>
      </g>
     </g>
    </g>
    <g id="xtick_36">
     <g id="line2d_79">
      <g>
       <use xlink:href="#mbcb02aef95" x="211.363163" y="296.773882" style="stroke: #000000; stroke-width: 0.8"/>
      </g>
     </g>
     <g id="text_40">
      <!-- attn -->
      <g transform="translate(214.122538 324.080132) rotate(-90) scale(0.1 -0.1)">
       <use xlink:href="#DejaVuSans-61"/>
       <use xlink:href="#DejaVuSans-74" x="61.279297"/>
       <use xlink:href="#DejaVuSans-74" x="100.488281"/>
       <use xlink:href="#DejaVuSans-6e" x="139.697266"/>
      </g>
     </g>
    </g>
    <g id="xtick_37">
     <g id="line2d_80">
      <g>
       <use xlink:href="#mbcb02aef95" x="222.667119" y="296.773882" style="stroke: #000000; stroke-width: 0.8"/>
      </g>
     </g>
     <g id="text_41">
      <!-- down -->
      <g transform="translate(225.426494 330.756695) rotate(-90) scale(0.1 -0.1)">
       <use xlink:href="#DejaVuSans-64"/>
       <use xlink:href="#DejaVuSans-6f" x="63.476562"/>
       <use xlink:href="#DejaVuSans-77" x="124.658203"/>
       <use xlink:href="#DejaVuSans-6e" x="206.445312"/>
      </g>
     </g>
    </g>
    <g id="xtick_38">
     <g id="line2d_81">
      <g>
       <use xlink:href="#mbcb02aef95" x="233.971075" y="296.773882" style="stroke: #000000; stroke-width: 0.8"/>
      </g>
     </g>
     <g id="text_42">
      <!-- res -->
      <g transform="translate(236.73045 319.02232) rotate(-90) scale(0.1 -0.1)">
       <use xlink:href="#DejaVuSans-72"/>
       <use xlink:href="#DejaVuSans-65" x="38.863281"/>
       <use xlink:href="#DejaVuSans-73" x="100.386719"/>
      </g>
     </g>
    </g>
    <g id="xtick_39">
     <g id="line2d_82">
      <g>
       <use xlink:href="#mbcb02aef95" x="245.275031" y="296.773882" style="stroke: #000000; stroke-width: 0.8"/>
      </g>
     </g>
     <g id="text_43">
      <!-- res -->
      <g transform="translate(248.034406 319.02232) rotate(-90) scale(0.1 -0.1)">
       <use xlink:href="#DejaVuSans-72"/>
       <use xlink:href="#DejaVuSans-65" x="38.863281"/>
       <use xlink:href="#DejaVuSans-73" x="100.386719"/>
      </g>
     </g>
    </g>
    <g id="xtick_40">
     <g id="line2d_83">
      <g>
       <use xlink:href="#mbcb02aef95" x="256.578987" y="296.773882" style="stroke: #000000; stroke-width: 0.8"/>
      </g>
     </g>
     <g id="text_44">
      <!-- res -->
      <g transform="translate(259.338362 319.02232) rotate(-90) scale(0.1 -0.1)">
       <use xlink:href="#DejaVuSans-72"/>
       <use xlink:href="#DejaVuSans-65" x="38.863281"/>
       <use xlink:href="#DejaVuSans-73" x="100.386719"/>
      </g>
     </g>
    </g>
    <g id="xtick_41">
     <g id="line2d_84">
      <g>
       <use xlink:href="#mbcb02aef95" x="267.882943" y="296.773882" style="stroke: #000000; stroke-width: 0.8"/>
      </g>
     </g>
     <g id="text_45">
      <!-- attn -->
      <g transform="translate(270.642318 324.080132) rotate(-90) scale(0.1 -0.1)">
       <use xlink:href="#DejaVuSans-61"/>
       <use xlink:href="#DejaVuSans-74" x="61.279297"/>
       <use xlink:href="#DejaVuSans-74" x="100.488281"/>
       <use xlink:href="#DejaVuSans-6e" x="139.697266"/>
      </g>
     </g>
    </g>
    <g id="xtick_42">
     <g id="line2d_85">
      <g>
       <use xlink:href="#mbcb02aef95" x="279.186899" y="296.773882" style="stroke: #000000; stroke-width: 0.8"/>
      </g>
     </g>
     <g id="text_46">
      <!-- res -->
      <g transform="translate(281.946274 319.02232) rotate(-90) scale(0.1 -0.1)">
       <use xlink:href="#DejaVuSans-72"/>
       <use xlink:href="#DejaVuSans-65" x="38.863281"/>
       <use xlink:href="#DejaVuSans-73" x="100.386719"/>
      </g>
     </g>
    </g>
    <g id="xtick_43">
     <g id="line2d_86">
      <g>
       <use xlink:href="#mbcb02aef95" x="290.490855" y="296.773882" style="stroke: #000000; stroke-width: 0.8"/>
      </g>
     </g>
     <g id="text_47">
      <!-- res -->
      <g transform="translate(293.25023 319.02232) rotate(-90) scale(0.1 -0.1)">
       <use xlink:href="#DejaVuSans-72"/>
       <use xlink:href="#DejaVuSans-65" x="38.863281"/>
       <use xlink:href="#DejaVuSans-73" x="100.386719"/>
      </g>
     </g>
    </g>
    <g id="xtick_44">
     <g id="line2d_87">
      <g>
       <use xlink:href="#mbcb02aef95" x="301.794811" y="296.773882" style="stroke: #000000; stroke-width: 0.8"/>
      </g>
     </g>
     <g id="text_48">
      <!-- res -->
      <g transform="translate(304.554186 319.02232) rotate(-90) scale(0.1 -0.1)">
       <use xlink:href="#DejaVuSans-72"/>
       <use xlink:href="#DejaVuSans-65" x="38.863281"/>
       <use xlink:href="#DejaVuSans-73" x="100.386719"/>
      </g>
     </g>
    </g>
    <g id="xtick_45">
     <g id="line2d_88">
      <g>
       <use xlink:href="#mbcb02aef95" x="313.098767" y="296.773882" style="stroke: #000000; stroke-width: 0.8"/>
      </g>
     </g>
     <g id="text_49">
      <!-- up -->
      <g transform="translate(315.858142 316.45982) rotate(-90) scale(0.1 -0.1)">
       <use xlink:href="#DejaVuSans-75"/>
       <use xlink:href="#DejaVuSans-70" x="63.378906"/>
      </g>
     </g>
    </g>
    <g id="xtick_46">
     <g id="line2d_89">
      <g>
       <use xlink:href="#mbcb02aef95" x="324.402723" y="296.773882" style="stroke: #000000; stroke-width: 0.8"/>
      </g>
     </g>
     <g id="text_50">
      <!-- res -->
      <g transform="translate(327.162098 319.02232) rotate(-90) scale(0.1 -0.1)">
       <use xlink:href="#DejaVuSans-72"/>
       <use xlink:href="#DejaVuSans-65" x="38.863281"/>
       <use xlink:href="#DejaVuSans-73" x="100.386719"/>
      </g>
     </g>
    </g>
    <g id="xtick_47">
     <g id="line2d_90">
      <g>
       <use xlink:href="#mbcb02aef95" x="335.706679" y="296.773882" style="stroke: #000000; stroke-width: 0.8"/>
      </g>
     </g>
     <g id="text_51">
      <!-- attn -->
      <g transform="translate(338.466054 324.080132) rotate(-90) scale(0.1 -0.1)">
       <use xlink:href="#DejaVuSans-61"/>
       <use xlink:href="#DejaVuSans-74" x="61.279297"/>
       <use xlink:href="#DejaVuSans-74" x="100.488281"/>
       <use xlink:href="#DejaVuSans-6e" x="139.697266"/>
      </g>
     </g>
    </g>
    <g id="xtick_48">
     <g id="line2d_91">
      <g>
       <use xlink:href="#mbcb02aef95" x="347.010635" y="296.773882" style="stroke: #000000; stroke-width: 0.8"/>
      </g>
     </g>
     <g id="text_52">
      <!-- res -->
      <g transform="translate(349.77001 319.02232) rotate(-90) scale(0.1 -0.1)">
       <use xlink:href="#DejaVuSans-72"/>
       <use xlink:href="#DejaVuSans-65" x="38.863281"/>
       <use xlink:href="#DejaVuSans-73" x="100.386719"/>
      </g>
     </g>
    </g>
    <g id="xtick_49">
     <g id="line2d_92">
      <g>
       <use xlink:href="#mbcb02aef95" x="358.314591" y="296.773882" style="stroke: #000000; stroke-width: 0.8"/>
      </g>
     </g>
     <g id="text_53">
      <!-- attn -->
      <g transform="translate(361.073966 324.080132) rotate(-90) scale(0.1 -0.1)">
       <use xlink:href="#DejaVuSans-61"/>
       <use xlink:href="#DejaVuSans-74" x="61.279297"/>
       <use xlink:href="#DejaVuSans-74" x="100.488281"/>
       <use xlink:href="#DejaVuSans-6e" x="139.697266"/>
      </g>
     </g>
    </g>
    <g id="xtick_50">
     <g id="line2d_93">
      <g>
       <use xlink:href="#mbcb02aef95" x="369.618547" y="296.773882" style="stroke: #000000; stroke-width: 0.8"/>
      </g>
     </g>
     <g id="text_54">
      <!-- res -->
      <g transform="translate(372.377922 319.02232) rotate(-90) scale(0.1 -0.1)">
       <use xlink:href="#DejaVuSans-72"/>
       <use xlink:href="#DejaVuSans-65" x="38.863281"/>
       <use xlink:href="#DejaVuSans-73" x="100.386719"/>
      </g>
     </g>
    </g>
    <g id="xtick_51">
     <g id="line2d_94">
      <g>
       <use xlink:href="#mbcb02aef95" x="380.922503" y="296.773882" style="stroke: #000000; stroke-width: 0.8"/>
      </g>
     </g>
     <g id="text_55">
      <!-- attn -->
      <g transform="translate(383.681878 324.080132) rotate(-90) scale(0.1 -0.1)">
       <use xlink:href="#DejaVuSans-61"/>
       <use xlink:href="#DejaVuSans-74" x="61.279297"/>
       <use xlink:href="#DejaVuSans-74" x="100.488281"/>
       <use xlink:href="#DejaVuSans-6e" x="139.697266"/>
      </g>
     </g>
    </g>
    <g id="xtick_52">
     <g id="line2d_95">
      <g>
       <use xlink:href="#mbcb02aef95" x="392.226459" y="296.773882" style="stroke: #000000; stroke-width: 0.8"/>
      </g>
     </g>
     <g id="text_56">
      <!-- up -->
      <g transform="translate(394.985834 316.45982) rotate(-90) scale(0.1 -0.1)">
       <use xlink:href="#DejaVuSans-75"/>
       <use xlink:href="#DejaVuSans-70" x="63.378906"/>
      </g>
     </g>
    </g>
    <g id="xtick_53">
     <g id="line2d_96">
      <g>
       <use xlink:href="#mbcb02aef95" x="403.530415" y="296.773882" style="stroke: #000000; stroke-width: 0.8"/>
      </g>
     </g>
     <g id="text_57">
      <!-- res -->
      <g transform="translate(406.28979 319.02232) rotate(-90) scale(0.1 -0.1)">
       <use xlink:href="#DejaVuSans-72"/>
       <use xlink:href="#DejaVuSans-65" x="38.863281"/>
       <use xlink:href="#DejaVuSans-73" x="100.386719"/>
      </g>
     </g>
    </g>
    <g id="xtick_54">
     <g id="line2d_97">
      <g>
       <use xlink:href="#mbcb02aef95" x="414.834371" y="296.773882" style="stroke: #000000; stroke-width: 0.8"/>
      </g>
     </g>
     <g id="text_58">
      <!-- attn -->
      <g transform="translate(417.593746 324.080132) rotate(-90) scale(0.1 -0.1)">
       <use xlink:href="#DejaVuSans-61"/>
       <use xlink:href="#DejaVuSans-74" x="61.279297"/>
       <use xlink:href="#DejaVuSans-74" x="100.488281"/>
       <use xlink:href="#DejaVuSans-6e" x="139.697266"/>
      </g>
     </g>
    </g>
    <g id="xtick_55">
     <g id="line2d_98">
      <g>
       <use xlink:href="#mbcb02aef95" x="426.138327" y="296.773882" style="stroke: #000000; stroke-width: 0.8"/>
      </g>
     </g>
     <g id="text_59">
      <!-- res -->
      <g transform="translate(428.897702 319.02232) rotate(-90) scale(0.1 -0.1)">
       <use xlink:href="#DejaVuSans-72"/>
       <use xlink:href="#DejaVuSans-65" x="38.863281"/>
       <use xlink:href="#DejaVuSans-73" x="100.386719"/>
      </g>
     </g>
    </g>
    <g id="xtick_56">
     <g id="line2d_99">
      <g>
       <use xlink:href="#mbcb02aef95" x="437.442284" y="296.773882" style="stroke: #000000; stroke-width: 0.8"/>
      </g>
     </g>
     <g id="text_60">
      <!-- attn -->
      <g transform="translate(440.201659 324.080132) rotate(-90) scale(0.1 -0.1)">
       <use xlink:href="#DejaVuSans-61"/>
       <use xlink:href="#DejaVuSans-74" x="61.279297"/>
       <use xlink:href="#DejaVuSans-74" x="100.488281"/>
       <use xlink:href="#DejaVuSans-6e" x="139.697266"/>
      </g>
     </g>
    </g>
    <g id="xtick_57">
     <g id="line2d_100">
      <g>
       <use xlink:href="#mbcb02aef95" x="448.74624" y="296.773882" style="stroke: #000000; stroke-width: 0.8"/>
      </g>
     </g>
     <g id="text_61">
      <!-- res -->
      <g transform="translate(451.505615 319.02232) rotate(-90) scale(0.1 -0.1)">
       <use xlink:href="#DejaVuSans-72"/>
       <use xlink:href="#DejaVuSans-65" x="38.863281"/>
       <use xlink:href="#DejaVuSans-73" x="100.386719"/>
      </g>
     </g>
    </g>
    <g id="xtick_58">
     <g id="line2d_101">
      <g>
       <use xlink:href="#mbcb02aef95" x="460.050196" y="296.773882" style="stroke: #000000; stroke-width: 0.8"/>
      </g>
     </g>
     <g id="text_62">
      <!-- attn -->
      <g transform="translate(462.809571 324.080132) rotate(-90) scale(0.1 -0.1)">
       <use xlink:href="#DejaVuSans-61"/>
       <use xlink:href="#DejaVuSans-74" x="61.279297"/>
       <use xlink:href="#DejaVuSans-74" x="100.488281"/>
       <use xlink:href="#DejaVuSans-6e" x="139.697266"/>
      </g>
     </g>
    </g>
    <g id="xtick_59">
     <g id="line2d_102">
      <g>
       <use xlink:href="#mbcb02aef95" x="471.354152" y="296.773882" style="stroke: #000000; stroke-width: 0.8"/>
      </g>
     </g>
     <g id="text_63">
      <!-- up -->
      <g transform="translate(474.113527 316.45982) rotate(-90) scale(0.1 -0.1)">
       <use xlink:href="#DejaVuSans-75"/>
       <use xlink:href="#DejaVuSans-70" x="63.378906"/>
      </g>
     </g>
    </g>
    <g id="xtick_60">
     <g id="line2d_103">
      <g>
       <use xlink:href="#mbcb02aef95" x="482.658108" y="296.773882" style="stroke: #000000; stroke-width: 0.8"/>
      </g>
     </g>
     <g id="text_64">
      <!-- res -->
      <g transform="translate(485.417483 319.02232) rotate(-90) scale(0.1 -0.1)">
       <use xlink:href="#DejaVuSans-72"/>
       <use xlink:href="#DejaVuSans-65" x="38.863281"/>
       <use xlink:href="#DejaVuSans-73" x="100.386719"/>
      </g>
     </g>
    </g>
    <g id="xtick_61">
     <g id="line2d_104">
      <g>
       <use xlink:href="#mbcb02aef95" x="493.962064" y="296.773882" style="stroke: #000000; stroke-width: 0.8"/>
      </g>
     </g>
     <g id="text_65">
      <!-- attn -->
      <g transform="translate(496.721439 324.080132) rotate(-90) scale(0.1 -0.1)">
       <use xlink:href="#DejaVuSans-61"/>
       <use xlink:href="#DejaVuSans-74" x="61.279297"/>
       <use xlink:href="#DejaVuSans-74" x="100.488281"/>
       <use xlink:href="#DejaVuSans-6e" x="139.697266"/>
      </g>
     </g>
    </g>
    <g id="xtick_62">
     <g id="line2d_105">
      <g>
       <use xlink:href="#mbcb02aef95" x="505.26602" y="296.773882" style="stroke: #000000; stroke-width: 0.8"/>
      </g>
     </g>
     <g id="text_66">
      <!-- res -->
      <g transform="translate(508.025395 319.02232) rotate(-90) scale(0.1 -0.1)">
       <use xlink:href="#DejaVuSans-72"/>
       <use xlink:href="#DejaVuSans-65" x="38.863281"/>
       <use xlink:href="#DejaVuSans-73" x="100.386719"/>
      </g>
     </g>
    </g>
    <g id="xtick_63">
     <g id="line2d_106">
      <g>
       <use xlink:href="#mbcb02aef95" x="516.569976" y="296.773882" style="stroke: #000000; stroke-width: 0.8"/>
      </g>
     </g>
     <g id="text_67">
      <!-- attn -->
      <g transform="translate(519.329351 324.080132) rotate(-90) scale(0.1 -0.1)">
       <use xlink:href="#DejaVuSans-61"/>
       <use xlink:href="#DejaVuSans-74" x="61.279297"/>
       <use xlink:href="#DejaVuSans-74" x="100.488281"/>
       <use xlink:href="#DejaVuSans-6e" x="139.697266"/>
      </g>
     </g>
    </g>
    <g id="xtick_64">
     <g id="line2d_107">
      <g>
       <use xlink:href="#mbcb02aef95" x="527.873932" y="296.773882" style="stroke: #000000; stroke-width: 0.8"/>
      </g>
     </g>
     <g id="text_68">
      <!-- res -->
      <g transform="translate(530.633307 319.02232) rotate(-90) scale(0.1 -0.1)">
       <use xlink:href="#DejaVuSans-72"/>
       <use xlink:href="#DejaVuSans-65" x="38.863281"/>
       <use xlink:href="#DejaVuSans-73" x="100.386719"/>
      </g>
     </g>
    </g>
    <g id="xtick_65">
     <g id="line2d_108">
      <g>
       <use xlink:href="#mbcb02aef95" x="539.177888" y="296.773882" style="stroke: #000000; stroke-width: 0.8"/>
      </g>
     </g>
     <g id="text_69">
      <!-- attn -->
      <g transform="translate(541.937263 324.080132) rotate(-90) scale(0.1 -0.1)">
       <use xlink:href="#DejaVuSans-61"/>
       <use xlink:href="#DejaVuSans-74" x="61.279297"/>
       <use xlink:href="#DejaVuSans-74" x="100.488281"/>
       <use xlink:href="#DejaVuSans-6e" x="139.697266"/>
      </g>
     </g>
    </g>
    <g id="xtick_66">
     <g id="line2d_109">
      <g>
       <use xlink:href="#mbcb02aef95" x="550.481844" y="296.773882" style="stroke: #000000; stroke-width: 0.8"/>
      </g>
     </g>
     <g id="text_70">
      <!-- conv -->
      <g transform="translate(553.241219 327.64732) rotate(-90) scale(0.1 -0.1)">
       <use xlink:href="#DejaVuSans-63"/>
       <use xlink:href="#DejaVuSans-6f" x="54.980469"/>
       <use xlink:href="#DejaVuSans-6e" x="116.162109"/>
       <use xlink:href="#DejaVuSans-76" x="179.541016"/>
      </g>
     </g>
    </g>
   </g>
   <g id="matplotlib.axis_10">
    <g id="ytick_11">
     <g id="line2d_110">
      <g>
       <use xlink:href="#me5179b328b" x="47.4558" y="292.923954" style="stroke: #000000; stroke-width: 0.8"/>
      </g>
     </g>
     <g id="text_71">
      <!-- 0.5 -->
      <g transform="translate(24.552675 296.723173) scale(0.1 -0.1)">
       <use xlink:href="#DejaVuSans-30"/>
       <use xlink:href="#DejaVuSans-2e" x="63.623047"/>
       <use xlink:href="#DejaVuSans-35" x="95.410156"/>
      </g>
     </g>
    </g>
    <g id="ytick_12">
     <g id="line2d_111">
      <g>
       <use xlink:href="#me5179b328b" x="47.4558" y="267.595996" style="stroke: #000000; stroke-width: 0.8"/>
      </g>
     </g>
     <g id="text_72">
      <!-- 1.0 -->
      <g transform="translate(24.552675 271.395214) scale(0.1 -0.1)">
       <use xlink:href="#DejaVuSans-31"/>
       <use xlink:href="#DejaVuSans-2e" x="63.623047"/>
       <use xlink:href="#DejaVuSans-30" x="95.410156"/>
      </g>
     </g>
    </g>
    <g id="ytick_13">
     <g id="line2d_112">
      <g>
       <use xlink:href="#me5179b328b" x="47.4558" y="242.268037" style="stroke: #000000; stroke-width: 0.8"/>
      </g>
     </g>
     <g id="text_73">
      <!-- 2.0 -->
      <g transform="translate(24.552675 246.067256) scale(0.1 -0.1)">
       <use xlink:href="#DejaVuSans-32"/>
       <use xlink:href="#DejaVuSans-2e" x="63.623047"/>
       <use xlink:href="#DejaVuSans-30" x="95.410156"/>
      </g>
     </g>
    </g>
    <g id="ytick_14">
     <g id="line2d_113">
      <g>
       <use xlink:href="#me5179b328b" x="47.4558" y="216.940078" style="stroke: #000000; stroke-width: 0.8"/>
      </g>
     </g>
     <g id="text_74">
      <!-- 4.0 -->
      <g transform="translate(24.552675 220.739297) scale(0.1 -0.1)">
       <use xlink:href="#DejaVuSans-34"/>
       <use xlink:href="#DejaVuSans-2e" x="63.623047"/>
       <use xlink:href="#DejaVuSans-30" x="95.410156"/>
      </g>
     </g>
    </g>
    <g id="ytick_15">
     <g id="line2d_114">
      <g>
       <use xlink:href="#m0aaf938fa8" x="47.4558" y="286.26183" style="stroke: #000000; stroke-width: 0.6"/>
      </g>
     </g>
    </g>
    <g id="ytick_16">
     <g id="line2d_115">
      <g>
       <use xlink:href="#m0aaf938fa8" x="47.4558" y="280.629084" style="stroke: #000000; stroke-width: 0.6"/>
      </g>
     </g>
    </g>
    <g id="ytick_17">
     <g id="line2d_116">
      <g>
       <use xlink:href="#m0aaf938fa8" x="47.4558" y="275.749777" style="stroke: #000000; stroke-width: 0.6"/>
      </g>
     </g>
    </g>
    <g id="ytick_18">
     <g id="line2d_117">
      <g>
       <use xlink:href="#m0aaf938fa8" x="47.4558" y="271.445924" style="stroke: #000000; stroke-width: 0.6"/>
      </g>
     </g>
    </g>
    <g id="ytick_19">
     <g id="line2d_118">
      <g>
       <use xlink:href="#m0aaf938fa8" x="47.4558" y="227.452131" style="stroke: #000000; stroke-width: 0.6"/>
      </g>
     </g>
    </g>
    <g id="ytick_20">
     <g id="line2d_119">
      <g>
       <use xlink:href="#m0aaf938fa8" x="47.4558" y="208.786297" style="stroke: #000000; stroke-width: 0.6"/>
      </g>
     </g>
    </g>
    <g id="text_75">
     <!-- rel. norm -->
     <g transform="translate(18.472987 272.721542) rotate(-90) scale(0.1 -0.1)">
      <use xlink:href="#DejaVuSans-72"/>
      <use xlink:href="#DejaVuSans-65" x="38.863281"/>
      <use xlink:href="#DejaVuSans-6c" x="100.386719"/>
      <use xlink:href="#DejaVuSans-2e" x="128.169922"/>
      <use xlink:href="#DejaVuSans-20" x="159.957031"/>
      <use xlink:href="#DejaVuSans-6e" x="191.744141"/>
      <use xlink:href="#DejaVuSans-6f" x="255.123047"/>
      <use xlink:href="#DejaVuSans-72" x="316.304688"/>
      <use xlink:href="#DejaVuSans-6d" x="355.667969"/>
     </g>
    </g>
   </g>
   <g id="line2d_120">
    <path d="M 58.759756 296.773882 
L 58.759756 203.362953 
" clip-path="url(#pb0b4d6bd49)" style="fill: none; stroke-dasharray: 5.55,2.4; stroke-dashoffset: 0; stroke: #d3d3d3; stroke-width: 1.5"/>
   </g>
   <g id="line2d_121">
    <path d="M 115.279536 296.773882 
L 115.279536 203.362953 
" clip-path="url(#pb0b4d6bd49)" style="fill: none; stroke-dasharray: 5.55,2.4; stroke-dashoffset: 0; stroke: #d3d3d3; stroke-width: 1.5"/>
   </g>
   <g id="line2d_122">
    <path d="M 171.799316 296.773882 
L 171.799316 203.362953 
" clip-path="url(#pb0b4d6bd49)" style="fill: none; stroke-dasharray: 5.55,2.4; stroke-dashoffset: 0; stroke: #d3d3d3; stroke-width: 1.5"/>
   </g>
   <g id="line2d_123">
    <path d="M 228.319097 296.773882 
L 228.319097 203.362953 
" clip-path="url(#pb0b4d6bd49)" style="fill: none; stroke-dasharray: 5.55,2.4; stroke-dashoffset: 0; stroke: #d3d3d3; stroke-width: 1.5"/>
   </g>
   <g id="line2d_124">
    <path d="M 250.927009 296.773882 
L 250.927009 203.362953 
" clip-path="url(#pb0b4d6bd49)" style="fill: none; stroke-dasharray: 5.55,2.4; stroke-dashoffset: 0; stroke: #d3d3d3; stroke-width: 1.5"/>
   </g>
   <g id="line2d_125">
    <path d="M 284.838877 296.773882 
L 284.838877 203.362953 
" clip-path="url(#pb0b4d6bd49)" style="fill: none; stroke-dasharray: 5.55,2.4; stroke-dashoffset: 0; stroke: #d3d3d3; stroke-width: 1.5"/>
   </g>
   <g id="line2d_126">
    <path d="M 318.750745 296.773882 
L 318.750745 203.362953 
" clip-path="url(#pb0b4d6bd49)" style="fill: none; stroke-dasharray: 5.55,2.4; stroke-dashoffset: 0; stroke: #d3d3d3; stroke-width: 1.5"/>
   </g>
   <g id="line2d_127">
    <path d="M 397.878437 296.773882 
L 397.878437 203.362953 
" clip-path="url(#pb0b4d6bd49)" style="fill: none; stroke-dasharray: 5.55,2.4; stroke-dashoffset: 0; stroke: #d3d3d3; stroke-width: 1.5"/>
   </g>
   <g id="line2d_128">
    <path d="M 477.00613 296.773882 
L 477.00613 203.362953 
" clip-path="url(#pb0b4d6bd49)" style="fill: none; stroke-dasharray: 5.55,2.4; stroke-dashoffset: 0; stroke: #d3d3d3; stroke-width: 1.5"/>
   </g>
   <g id="line2d_129">
    <path d="M 544.829866 296.773882 
L 544.829866 203.362953 
" clip-path="url(#pb0b4d6bd49)" style="fill: none; stroke-dasharray: 5.55,2.4; stroke-dashoffset: 0; stroke: #d3d3d3; stroke-width: 1.5"/>
   </g>
   <g id="line2d_130">
    <path d="M 53.107778 269.458033 
L 64.411734 269.39774 
L 75.71569 268.661784 
L 87.019646 269.557751 
L 98.323602 270.341525 
L 109.627558 271.335806 
L 120.931514 270.692273 
L 132.23547 269.926946 
L 143.539426 271.451881 
L 154.843382 272.265906 
L 166.147338 271.446818 
L 177.451295 270.162428 
L 188.755251 268.852388 
L 200.059207 269.779206 
L 211.363163 268.905795 
L 222.667119 271.439896 
L 233.971075 271.478826 
L 245.275031 271.306253 
L 256.578987 271.668395 
L 267.882943 271.531137 
L 279.186899 271.333036 
L 290.490855 272.223577 
L 301.794811 272.284579 
L 313.098767 272.586023 
L 324.402723 261.640457 
L 335.706679 250.412533 
L 347.010635 248.542559 
L 358.314591 234.411078 
L 369.618547 214.997454 
L 380.922503 241.681468 
L 392.226459 232.619688 
L 403.530415 220.7942 
L 414.834371 224.163922 
L 426.138327 228.536738 
L 437.442284 230.383318 
L 448.74624 231.038046 
L 460.050196 254.460173 
L 471.354152 237.561995 
L 482.658108 268.376786 
L 493.962064 272.763534 
L 505.26602 269.137863 
L 516.569976 271.930429 
L 527.873932 270.573914 
L 539.177888 270.16751 
L 550.481844 267.868087 
" clip-path="url(#pb0b4d6bd49)" style="fill: none; stroke: #26a259; stroke-width: 1.5; stroke-linecap: square"/>
   </g>
   <g id="line2d_131">
    <path d="M 53.107778 267.595996 
L 64.411734 267.595996 
L 75.71569 267.595996 
L 87.019646 267.595996 
L 98.323602 267.595996 
L 109.627558 267.595996 
L 120.931514 267.595996 
L 132.23547 267.595996 
L 143.539426 267.595996 
L 154.843382 267.595996 
L 166.147338 267.595996 
L 177.451295 267.595996 
L 188.755251 267.595996 
L 200.059207 267.595996 
L 211.363163 267.595996 
L 222.667119 267.595996 
L 233.971075 267.595996 
L 245.275031 267.595996 
L 256.578987 267.595996 
L 267.882943 267.595996 
L 279.186899 267.595996 
L 290.490855 267.595996 
L 301.794811 267.595996 
L 313.098767 267.595996 
L 324.402723 267.595996 
L 335.706679 267.595996 
L 347.010635 267.595996 
L 358.314591 267.595996 
L 369.618547 267.595996 
L 380.922503 267.595996 
L 392.226459 267.595996 
L 403.530415 267.595996 
L 414.834371 267.595996 
L 426.138327 267.595996 
L 437.442284 267.595996 
L 448.74624 267.595996 
L 460.050196 267.595996 
L 471.354152 267.595996 
L 482.658108 267.595996 
L 493.962064 267.595996 
L 505.26602 267.595996 
L 516.569976 267.595996 
L 527.873932 267.595996 
L 539.177888 267.595996 
L 550.481844 267.595996 
" clip-path="url(#pb0b4d6bd49)" style="fill: none; stroke-dasharray: 5.55,2.4; stroke-dashoffset: 0; stroke: #808080; stroke-width: 1.5"/>
   </g>
   <g id="patch_19">
    <path d="M 47.4558 296.773882 
L 47.4558 203.362953 
" style="fill: none; stroke: #000000; stroke-width: 0.8; stroke-linejoin: miter; stroke-linecap: square"/>
   </g>
   <g id="patch_20">
    <path d="M 561.7858 296.773882 
L 561.7858 203.362953 
" style="fill: none; stroke: #000000; stroke-width: 0.8; stroke-linejoin: miter; stroke-linecap: square"/>
   </g>
   <g id="patch_21">
    <path d="M 47.4558 296.773882 
L 561.7858 296.773882 
" style="fill: none; stroke: #000000; stroke-width: 0.8; stroke-linejoin: miter; stroke-linecap: square"/>
   </g>
   <g id="patch_22">
    <path d="M 47.4558 203.362953 
L 561.7858 203.362953 
" style="fill: none; stroke: #000000; stroke-width: 0.8; stroke-linejoin: miter; stroke-linecap: square"/>
   </g>
   <g id="text_76">
    <!-- layers: -->
    <g transform="translate(8.645313 322.88599) scale(0.1 -0.1)">
     <defs>
      <path id="DejaVuSans-3a" d="M 750 794 
L 1409 794 
L 1409 0 
L 750 0 
L 750 794 
z
M 750 3309 
L 1409 3309 
L 1409 2516 
L 750 2516 
L 750 3309 
z
" transform="scale(0.015625)"/>
     </defs>
     <use xlink:href="#DejaVuSans-6c"/>
     <use xlink:href="#DejaVuSans-61" x="27.783203"/>
     <use xlink:href="#DejaVuSans-79" x="89.0625"/>
     <use xlink:href="#DejaVuSans-65" x="148.242188"/>
     <use xlink:href="#DejaVuSans-72" x="209.765625"/>
     <use xlink:href="#DejaVuSans-73" x="250.878906"/>
     <use xlink:href="#DejaVuSans-3a" x="302.978516"/>
    </g>
   </g>
   <g id="text_77">
    <!-- blocks: -->
    <g transform="translate(7.2 341.568176) scale(0.1 -0.1)">
     <defs>
      <path id="DejaVuSans-6b" d="M 581 4863 
L 1159 4863 
L 1159 1991 
L 2875 3500 
L 3609 3500 
L 1753 1863 
L 3688 0 
L 2938 0 
L 1159 1709 
L 1159 0 
L 581 0 
L 581 4863 
z
" transform="scale(0.015625)"/>
     </defs>
     <use xlink:href="#DejaVuSans-62"/>
     <use xlink:href="#DejaVuSans-6c" x="63.476562"/>
     <use xlink:href="#DejaVuSans-6f" x="91.259766"/>
     <use xlink:href="#DejaVuSans-63" x="152.441406"/>
     <use xlink:href="#DejaVuSans-6b" x="207.421875"/>
     <use xlink:href="#DejaVuSans-73" x="265.332031"/>
     <use xlink:href="#DejaVuSans-3a" x="317.431641"/>
    </g>
   </g>
   <g id="legend_3">
    <g id="patch_23">
     <path d="M 486.506028 222.253831 
L 555.9548 222.253831 
Q 557.6208 222.253831 557.6208 220.587831 
L 557.6208 209.193953 
Q 557.6208 207.527953 555.9548 207.527953 
L 486.506028 207.527953 
Q 484.840028 207.527953 484.840028 209.193953 
L 484.840028 220.587831 
Q 484.840028 222.253831 486.506028 222.253831 
z
" style="fill: #ffffff; opacity: 0.8; stroke: #cccccc; stroke-linejoin: miter"/>
    </g>
    <g id="line2d_132">
     <path d="M 488.172028 214.273951 
L 496.502028 214.273951 
L 504.832028 214.273951 
" style="fill: none; stroke: #26a259; stroke-width: 1.5; stroke-linecap: square"/>
    </g>
    <g id="text_78">
     <!-- anomalies -->
     <g transform="translate(511.496028 217.189451) scale(0.0833 -0.0833)">
      <use xlink:href="#DejaVuSans-61"/>
      <use xlink:href="#DejaVuSans-6e" x="61.279297"/>
      <use xlink:href="#DejaVuSans-6f" x="124.658203"/>
      <use xlink:href="#DejaVuSans-6d" x="185.839844"/>
      <use xlink:href="#DejaVuSans-61" x="283.251953"/>
      <use xlink:href="#DejaVuSans-6c" x="344.53125"/>
      <use xlink:href="#DejaVuSans-69" x="372.314453"/>
      <use xlink:href="#DejaVuSans-65" x="400.097656"/>
      <use xlink:href="#DejaVuSans-73" x="461.621094"/>
     </g>
    </g>
   </g>
  </g>
 </g>
 <defs>
  <clipPath id="pd19080f006">
   <rect x="47.4558" y="7.2" width="514.33" height="93.41093"/>
  </clipPath>
  <clipPath id="p501ab9a2bd">
   <rect x="47.4558" y="105.281476" width="514.33" height="93.41093"/>
  </clipPath>
  <clipPath id="pb0b4d6bd49">
   <rect x="47.4558" y="203.362953" width="514.33" height="93.41093"/>
  </clipPath>
 </defs>
</svg>
